<?xml version="1.0" standalone="no"?>
<!DOCTYPE svg PUBLIC "-//W3C//DTD SVG 20010904//EN"
 "http://www.w3.org/TR/2001/REC-SVG-20010904/DTD/svg10.dtd">
<svg version="1.0" xmlns="http://www.w3.org/2000/svg"
 width="730.000000pt" height="730.000000pt" viewBox="0 0 730.000000 730.000000"
 preserveAspectRatio="xMidYMid meet">

<g transform="translate(0.000000,730.000000) scale(0.100000,-0.100000)"
fill="#000000" stroke="none">
<path d="M1796 5660 c-186 -196 -284 -402 -309 -648 -29 -286 61 -539 263
-743 154 -154 330 -244 540 -275 198 -29 295 -10 392 74 37 33 51 74 46 133
-11 114 -137 195 -273 174 -86 -12 -150 -109 -121 -180 27 -63 168 -87 219
-37 46 47 6 132 -63 132 -33 0 -71 -34 -63 -56 7 -18 13 -18 41 1 29 21 65 4
60 -28 -6 -41 -105 -49 -143 -11 -39 39 7 124 76 139 76 17 180 -29 214 -94
26 -52 20 -96 -22 -137 -58 -59 -112 -77 -223 -77 -213 0 -430 78 -585 210
-174 148 -273 317 -310 528 -19 108 -19 176 -1 285 38 232 128 409 298 586 49
50 88 96 88 102 0 33 -46 4 -124 -78z"/>
<path d="M5350 5738 c0 -6 39 -52 88 -102 170 -177 260 -354 298 -586 18 -109
18 -177 -1 -285 -75 -426 -452 -738 -895 -738 -111 0 -165 18 -223 77 -29 28
-37 45 -37 72 0 99 121 183 229 159 69 -15 115 -100 76 -139 -38 -38 -137 -30
-143 11 -5 32 31 49 60 28 28 -19 34 -19 41 -1 8 22 -30 56 -63 56 -69 0 -109
-85 -63 -132 51 -50 192 -26 219 37 29 71 -35 168 -121 180 -136 21 -262 -60
-273 -174 -7 -77 18 -120 99 -173 139 -89 465 -45 699 95 113 68 258 213 322
322 187 321 163 733 -61 1064 -89 130 -251 279 -251 229z"/>
<path d="M1565 5726 c-43 -18 -115 -103 -115 -133 0 -39 31 -82 68 -94 47 -15
84 3 128 62 20 27 65 70 101 95 92 67 85 78 -47 81 -71 2 -115 -2 -135 -11z
m129 -55 c-22 -16 -54 -50 -72 -75 -41 -57 -62 -69 -96 -56 -51 19 -24 97 48
141 22 13 50 19 95 19 l65 0 -40 -29z"/>
<path d="M5467 5733 c-16 -16 -3 -34 57 -77 35 -25 80 -68 100 -95 44 -59 81
-77 128 -62 37 12 68 55 68 94 0 31 -73 115 -117 133 -33 14 -224 20 -236 7z
m222 -48 c74 -38 107 -126 55 -145 -34 -13 -55 -1 -96 56 -18 25 -50 59 -72
75 l-40 29 63 0 c35 0 74 -6 90 -15z"/>
<path d="M1852 5635 c-35 -25 -76 -122 -80 -190 -4 -53 -1 -63 22 -87 32 -35
86 -38 117 -7 17 17 19 28 14 72 -4 29 -9 56 -12 61 -3 4 -8 42 -12 84 -3 41
-11 77 -16 79 -6 2 -20 -4 -33 -12z m20 -252 c-21 -17 -27 -16 -47 4 -22 21
-16 91 11 148 l18 40 17 -90 c14 -81 14 -91 1 -102z"/>
<path d="M5377 5643 c-4 -3 -7 -29 -7 -57 0 -28 -4 -66 -9 -84 -5 -18 -13 -54
-16 -82 -5 -41 -3 -52 14 -69 31 -31 85 -28 117 7 23 24 26 34 22 87 -7 105
-86 234 -121 198z m71 -142 c17 -48 15 -97 -4 -115 -18 -19 -20 -19 -43 -6
-17 8 -17 14 -2 99 16 96 23 99 49 22z"/>
<path d="M1459 5456 c-20 -7 -50 -22 -67 -34 -36 -27 -82 -114 -82 -158 0 -61
64 -108 113 -83 32 18 44 38 58 94 13 52 44 110 73 134 23 19 20 36 -9 49 -32
15 -41 14 -86 -2z m26 -64 c-14 -21 -32 -60 -40 -87 -8 -28 -23 -60 -33 -73
-16 -21 -19 -21 -40 -7 -27 20 -28 47 -1 102 22 45 61 79 107 93 15 5 28 9 30
9 1 1 -9 -16 -23 -37z"/>
<path d="M5723 5458 c-27 -13 -29 -30 -7 -49 26 -22 61 -82 69 -119 19 -90 63
-132 118 -111 63 24 73 100 23 186 -42 71 -149 120 -203 93z m126 -67 c32 -23
71 -94 71 -129 0 -11 -10 -28 -22 -37 -21 -14 -24 -14 -40 7 -10 13 -25 45
-33 73 -8 27 -26 66 -40 86 l-24 37 29 -8 c17 -5 43 -18 59 -29z"/>
<path d="M1671 5382 c-16 -31 -29 -163 -19 -199 17 -62 95 -95 130 -55 26 29
30 60 14 115 -18 62 -74 150 -98 155 -9 2 -21 -6 -27 -16z m68 -107 c40 -76
19 -154 -29 -110 -16 14 -20 31 -20 76 0 62 8 95 20 82 5 -4 17 -26 29 -48z"/>
<path d="M5541 5374 c-38 -48 -74 -135 -75 -179 -2 -77 59 -110 117 -65 36 29
46 71 35 159 -13 113 -36 138 -77 85z m39 -130 c0 -66 -23 -103 -56 -90 -23 9
-14 89 16 139 29 48 40 35 40 -49z"/>
<path d="M2189 5354 c-14 -17 -17 -68 -6 -100 6 -18 1 -25 -28 -42 -60 -36
-39 -91 35 -92 l35 0 -38 -31 c-29 -24 -37 -38 -37 -63 0 -34 24 -76 43 -76 7
0 12 -15 12 -37 0 -37 1 -38 41 -41 l41 -3 -5 -48 c-4 -44 -2 -51 22 -66 16
-11 35 -15 50 -11 20 5 24 1 29 -24 8 -37 37 -53 71 -40 53 20 104 176 113
345 5 93 4 102 -18 129 -12 16 -38 35 -58 43 -20 8 -55 34 -78 57 -52 50 -159
116 -189 116 -12 0 -27 -7 -35 -16z m116 -69 c28 -18 63 -46 78 -63 28 -29 28
-30 8 -37 -12 -3 -21 -11 -21 -16 0 -5 -45 -9 -100 -9 -96 0 -131 12 -76 26
14 3 32 14 40 23 14 16 14 21 -3 55 -22 42 -18 68 7 59 9 -4 40 -21 67 -38z
m208 -157 c28 -38 15 -98 -25 -112 -35 -12 -82 7 -97 40 -16 35 -14 48 10 78
29 37 83 33 112 -6z m-149 -104 c17 -24 17 -27 0 -45 -19 -21 -97 -69 -113
-69 -7 0 -7 8 0 27 11 30 -3 52 -37 57 -26 4 -29 38 -4 61 11 10 44 26 72 36
l53 18 6 -29 c4 -16 14 -41 23 -56z m141 -147 c-22 -95 -49 -157 -71 -157 -14
0 -16 7 -10 54 8 68 -6 79 -44 37 -32 -34 -60 -33 -60 4 0 24 41 85 86 127 32
30 106 43 112 20 2 -7 -4 -45 -13 -85z"/>
<path d="M4962 5332 c-35 -20 -82 -56 -105 -78 -23 -23 -58 -49 -78 -57 -20
-8 -46 -27 -58 -43 -22 -27 -23 -36 -18 -129 9 -169 60 -325 113 -345 34 -13
63 3 71 40 5 25 9 29 29 24 15 -4 34 0 50 11 24 15 26 22 22 66 l-5 48 41 3
c40 3 41 4 41 41 0 22 5 37 12 37 19 0 43 42 43 76 0 25 -8 39 -37 63 l-38 31
35 0 c74 1 95 56 35 92 -29 17 -34 24 -28 42 11 32 8 83 -6 100 -21 25 -52 19
-119 -22z m87 -51 c-6 -14 -15 -31 -21 -38 -14 -17 13 -49 48 -57 55 -14 20
-26 -76 -26 -55 0 -100 4 -100 8 0 5 -10 13 -21 18 -20 9 -19 12 28 54 61 55
134 94 144 78 4 -6 3 -23 -2 -37z m-180 -147 c24 -30 26 -43 10 -78 -24 -52
-111 -59 -129 -10 -15 38 -12 59 11 88 15 19 30 26 54 26 24 0 39 -7 54 -26z
m181 -72 c30 -23 34 -64 6 -68 -34 -5 -48 -27 -37 -57 7 -19 7 -27 0 -27 -16
0 -94 48 -113 69 -16 18 -16 21 3 52 12 19 21 44 21 56 0 22 1 22 47 8 26 -8
59 -23 73 -33z m-186 -121 c45 -41 86 -102 86 -126 0 -37 -28 -38 -60 -4 -38
42 -52 31 -44 -37 6 -46 4 -54 -9 -54 -22 0 -44 45 -67 138 -29 115 -28 118
23 114 28 -3 52 -13 71 -31z"/>
<path d="M1350 5128 c-128 -86 -129 -288 -2 -288 22 0 44 6 50 13 6 7 18 52
26 100 9 48 23 101 31 118 9 17 15 40 13 52 -5 33 -72 36 -118 5z m65 -40
c-22 -73 -35 -126 -35 -149 0 -29 -23 -59 -44 -59 -40 0 -53 88 -23 146 23 43
67 80 101 83 4 1 5 -9 1 -21z"/>
<path d="M5807 5143 c-11 -11 -8 -42 8 -73 9 -17 22 -69 31 -117 8 -48 20 -93
26 -100 6 -7 28 -13 50 -13 126 0 126 202 -1 287 -32 22 -99 31 -114 16z m111
-67 c35 -31 53 -72 55 -121 2 -43 -15 -75 -39 -75 -21 0 -44 30 -44 59 0 23
-12 74 -36 150 -6 21 -5 23 17 16 13 -4 35 -17 47 -29z"/>
<path d="M1582 5113 c-4 -10 -7 -54 -7 -98 0 -94 23 -152 70 -174 26 -13 33
-12 65 5 27 15 36 26 38 50 4 45 -19 104 -69 173 -46 63 -82 79 -97 44z m103
-137 c14 -28 25 -58 25 -68 0 -24 -47 -36 -66 -16 -20 19 -39 118 -30 153 l8
30 19 -25 c10 -14 30 -47 44 -74z"/>
<path d="M5591 5069 c-50 -69 -73 -128 -69 -173 2 -24 11 -35 38 -50 32 -17
39 -18 65 -5 57 27 89 145 68 244 -7 32 -13 40 -33 43 -20 2 -33 -10 -69 -59z
m66 -81 c-8 -63 -27 -102 -52 -106 -57 -7 -56 40 2 133 31 49 37 55 46 40 5
-10 7 -40 4 -67z"/>
<path d="M1865 5076 c-45 -19 -65 -56 -65 -118 0 -91 30 -169 99 -256 89 -112
343 -237 470 -230 74 4 76 26 2 45 -100 25 -247 117 -358 224 -44 42 -93 112
-93 132 0 2 18 -1 40 -6 33 -9 42 -8 59 7 65 59 -2 217 -92 216 -18 -1 -46 -7
-62 -14z m101 -50 c23 -19 28 -32 28 -72 1 -43 -1 -49 -18 -46 -10 2 -25 10
-33 18 -18 18 -28 18 -47 -2 -22 -22 -20 -64 7 -112 30 -54 59 -87 142 -156
87 -73 85 -71 55 -56 -67 35 -132 84 -164 123 -50 61 -89 152 -94 217 -4 48
-1 58 22 83 31 33 66 35 102 3z"/>
<path d="M5282 5065 c-60 -51 -76 -150 -31 -191 17 -15 26 -16 59 -7 22 5 40
8 40 6 0 -20 -49 -90 -93 -132 -111 -107 -258 -199 -358 -224 -74 -19 -72 -41
2 -45 127 -7 381 118 470 230 69 87 99 165 99 256 0 63 -20 99 -67 118 -49 21
-88 17 -121 -11z m124 -42 c23 -25 26 -35 22 -83 -5 -65 -44 -156 -94 -217
-32 -39 -97 -88 -164 -123 -30 -15 -32 -17 55 56 83 69 112 102 143 156 26 48
28 90 6 112 -19 20 -29 20 -47 2 -8 -8 -23 -16 -33 -18 -17 -3 -19 3 -18 46 0
40 5 53 28 72 36 32 71 30 102 -3z"/>
<path d="M1371 4775 c-52 -47 -73 -95 -74 -167 0 -72 19 -103 88 -137 93 -46
136 3 94 105 -19 46 -24 76 -23 139 1 107 -18 120 -85 60z m63 -204 c24 -66
22 -75 -16 -67 -18 3 -43 17 -55 32 -40 45 -25 163 26 201 14 10 17 4 23 -55
3 -37 13 -87 22 -111z"/>
<path d="M5824 4802 c-6 -4 -10 -40 -10 -87 1 -63 -4 -93 -23 -139 -42 -102 1
-151 94 -105 69 34 88 65 88 137 -1 72 -22 120 -74 167 -39 35 -55 41 -75 27z
m90 -109 c24 -51 21 -126 -6 -157 -26 -30 -88 -47 -88 -25 0 8 9 43 20 77 11
35 20 86 20 113 0 46 1 48 19 37 10 -6 26 -27 35 -45z"/>
<path d="M1603 4793 c-41 -16 10 -165 79 -235 59 -61 94 -64 132 -15 51 66 32
103 -89 182 -45 29 -86 58 -89 64 -8 12 -13 12 -33 4z m168 -153 c34 -28 34
-29 17 -56 -22 -38 -30 -39 -68 -7 -29 24 -80 116 -80 143 0 11 84 -40 131
-80z"/>
<path d="M5634 4789 c-3 -6 -44 -35 -89 -64 -121 -79 -140 -116 -89 -182 38
-49 73 -46 132 15 73 74 120 219 76 236 -21 8 -22 8 -30 -5z m-24 -124 c-20
-49 -77 -115 -99 -115 -5 0 -17 12 -26 27 -13 19 -15 31 -8 42 11 18 146 111
152 105 2 -2 -6 -28 -19 -59z"/>
<path d="M1490 4428 c-44 -72 -20 -220 45 -277 45 -39 69 -45 121 -31 46 13
74 41 74 73 0 10 -23 42 -51 71 -56 58 -98 122 -99 148 0 23 -27 48 -51 48
-11 0 -28 -14 -39 -32z m153 -189 c47 -49 49 -53 32 -66 -11 -7 -35 -13 -55
-13 -66 0 -109 73 -110 186 0 68 18 70 53 4 16 -33 52 -83 80 -111z"/>
<path d="M5706 4445 c-9 -9 -16 -24 -16 -33 -1 -26 -43 -90 -99 -148 -28 -29
-51 -61 -51 -71 0 -53 91 -98 149 -74 68 29 112 111 112 214 1 94 -51 155 -95
112z m54 -99 c-1 -113 -44 -186 -110 -186 -20 0 -44 6 -55 13 -17 13 -15 17
32 66 28 29 63 78 79 110 33 67 54 66 54 -3z"/>
<path d="M1745 4430 c-25 -79 164 -216 272 -195 81 15 111 99 53 148 -33 28
-48 32 -175 47 -49 6 -102 13 -117 16 -21 4 -28 1 -33 -16z m169 -45 c126 -17
154 -33 137 -77 -6 -17 -20 -28 -39 -33 -53 -11 -184 54 -212 105 -6 11 -7 20
-3 20 4 0 57 -7 117 -15z"/>
<path d="M5395 4434 c-152 -20 -162 -23 -195 -50 -58 -50 -28 -134 53 -149 80
-15 219 59 259 137 20 38 17 79 -5 77 -7 -1 -57 -8 -112 -15z m75 -54 c-28
-51 -159 -116 -212 -105 -19 5 -33 16 -39 33 -17 43 12 61 127 76 140 20 137
20 124 -4z"/>
<path d="M2192 4282 c-32 -33 -81 -58 -149 -78 -7 -2 -13 -12 -13 -23 0 -51
165 -86 223 -48 52 34 74 130 37 167 -30 30 -56 25 -98 -18z m73 -22 c4 -12
-1 -36 -12 -58 -16 -33 -22 -37 -62 -40 -25 -2 -56 0 -70 3 -23 6 -20 9 37 37
34 17 62 36 62 42 0 13 20 36 31 36 4 0 11 -9 14 -20z"/>
<path d="M4980 4300 c-37 -37 -15 -133 37 -167 58 -38 223 -3 223 48 0 11 -6
21 -12 23 -69 20 -118 45 -150 78 -42 43 -68 48 -98 18z m65 -48 c5 -12 36
-35 69 -51 55 -27 58 -30 35 -36 -14 -3 -45 -5 -70 -3 -40 3 -46 7 -62 40 -19
39 -15 82 6 75 7 -2 16 -13 22 -25z"/>
<path d="M1782 4153 c-32 -25 -41 -115 -18 -165 38 -80 159 -168 232 -168 48
0 109 35 128 74 12 25 12 34 1 55 -21 42 -47 60 -124 86 -89 30 -131 55 -168
101 -28 35 -29 36 -51 17z m203 -158 c64 -20 85 -32 94 -51 14 -32 -3 -60 -45
-74 -25 -9 -42 -7 -89 11 -94 35 -167 129 -151 194 l6 24 51 -38 c31 -24 84
-49 134 -66z"/>
<path d="M5437 4136 c-34 -44 -78 -71 -168 -101 -77 -26 -103 -44 -124 -86
-11 -21 -11 -30 1 -55 19 -39 80 -74 128 -74 72 0 194 88 231 166 26 56 15
146 -21 171 -19 12 -23 11 -47 -21z m35 -115 c-27 -87 -164 -175 -236 -151
-42 14 -59 42 -45 74 9 19 30 31 94 51 49 16 102 42 131 64 45 35 50 36 58 19
6 -11 5 -33 -2 -57z"/>
<path d="M3350 3780 c-23 -23 -27 -79 -7 -99 6 -7 -13 -2 -43 10 -110 45 -214
69 -315 76 -109 6 -149 -2 -208 -41 -18 -13 -50 -25 -70 -29 -100 -16 -200
-105 -262 -232 -45 -92 -65 -172 -65 -265 l0 -75 -21 36 c-30 51 -130 114
-206 130 -79 16 -168 1 -234 -40 l-47 -29 -16 67 c-42 174 -161 333 -301 402
-62 30 -80 34 -167 37 -89 4 -101 2 -145 -22 -68 -37 -98 -85 -98 -155 0 -70
30 -116 86 -131 65 -18 107 11 116 79 5 33 2 41 -16 50 -18 10 -23 9 -31 -11
-9 -23 -9 -23 -9 3 -1 14 9 35 22 47 43 41 136 22 223 -45 34 -26 134 -147
134 -163 0 -4 -24 4 -53 18 -32 16 -75 27 -113 30 -59 4 -61 3 -92 -32 -18
-20 -32 -43 -32 -51 0 -8 -9 -15 -20 -15 -52 0 -132 -72 -145 -130 -10 -46 12
-122 55 -189 75 -116 227 -149 254 -55 9 32 -16 57 -65 63 -42 6 -44 7 -44 41
0 28 4 36 22 38 29 4 88 -27 146 -78 47 -42 151 -171 177 -220 7 -14 22 -37
34 -51 12 -14 34 -43 51 -65 74 -98 211 -211 323 -268 61 -31 156 -57 260 -71
190 -25 282 -85 457 -300 32 -39 63 -73 69 -77 24 -16 -7 -7 -47 13 -23 12
-85 63 -138 113 -109 104 -214 171 -305 193 -66 16 -91 13 -100 -12 -8 -20 41
-170 68 -207 l21 -30 -34 7 c-62 13 -139 46 -170 72 -17 14 -53 60 -81 102
-67 101 -90 124 -149 152 -60 28 -74 22 -107 -42 -20 -37 -22 -53 -17 -103 4
-33 13 -73 21 -88 l15 -29 -37 16 c-76 31 -86 51 -69 133 9 42 10 74 4 94 -11
40 -62 94 -114 120 -50 25 -94 66 -106 96 -10 26 -27 25 -43 0 -7 -11 -6 -29
4 -57 12 -38 11 -45 -11 -92 -18 -39 -23 -66 -21 -115 l2 -65 -40 22 c-73 41
-130 115 -130 168 0 9 20 38 45 65 55 59 72 111 51 160 -19 45 -71 102 -138
150 -30 22 -71 63 -92 92 -39 54 -66 70 -85 51 -14 -14 -14 -54 -1 -62 6 -3
10 -21 10 -39 0 -25 -10 -44 -36 -72 -19 -22 -47 -63 -61 -93 l-25 -53 -69 73
c-63 68 -109 142 -97 154 3 3 16 1 29 -4 29 -11 87 7 103 31 18 29 -4 69 -54
95 -87 46 -121 98 -103 158 14 45 -3 71 -39 62 -35 -9 -100 -91 -114 -146
l-12 -46 -22 48 c-23 52 -70 226 -70 261 0 33 37 85 65 92 15 4 37 1 50 -6 30
-16 40 -49 17 -57 -9 -3 -23 -7 -31 -9 -11 -3 -11 -7 -1 -19 17 -21 53 -19 73
3 21 23 21 35 2 77 -37 76 -144 72 -194 -8 -28 -45 -26 -89 7 -218 l28 -105
-62 47 c-122 92 -249 115 -302 53 -20 -23 -23 -35 -19 -71 9 -85 63 -128 118
-96 17 10 32 27 35 38 7 28 -12 75 -30 75 -21 0 -29 -17 -17 -38 7 -13 7 -22
-1 -30 -21 -21 -44 -13 -56 21 -17 49 -15 65 13 83 54 35 158 -5 287 -111 l73
-60 -73 -6 c-78 -7 -116 -26 -134 -64 -18 -41 -5 -55 52 -55 60 0 82 -18 140
-114 37 -61 65 -80 106 -70 27 7 38 37 32 88 -4 32 -2 34 17 24 49 -27 220
-172 298 -255 26 -28 66 -64 89 -79 22 -15 53 -47 69 -70 15 -23 53 -58 84
-78 30 -21 55 -39 55 -41 0 -13 -164 55 -217 91 -36 24 -70 44 -74 44 -5 0 -9
-15 -9 -33 0 -74 102 -208 194 -253 57 -27 157 -32 262 -13 102 19 201 16 307
-10 53 -13 97 -29 97 -35 0 -14 -88 -51 -165 -71 -33 -8 -99 -16 -148 -18
-113 -4 -123 -15 -61 -61 86 -62 258 -93 420 -75 39 4 133 28 210 54 169 58
267 85 274 78 14 -15 -110 -105 -195 -143 -51 -22 -97 -40 -103 -40 -16 0 -23
-16 -16 -34 10 -26 74 -39 184 -39 155 0 295 41 388 114 24 18 90 42 150 54
31 6 33 5 24 -12 -27 -49 -95 -113 -127 -119 -37 -7 -64 -30 -49 -43 15 -14
165 -30 229 -25 77 6 138 21 197 51 63 31 127 31 156 0 28 -30 28 -55 -1 -90
-18 -23 -34 -30 -86 -37 -70 -10 -96 -24 -71 -40 21 -14 118 -2 155 19 17 9
41 38 55 63 22 42 23 51 14 95 -6 26 -14 55 -18 64 -6 14 -1 15 55 3 34 -7 74
-11 90 -9 25 3 28 0 34 -37 11 -63 42 -88 110 -88 68 0 99 25 110 88 6 37 9
40 34 37 16 -2 56 2 90 9 56 12 61 11 55 -3 -4 -9 -12 -38 -18 -64 -9 -44 -8
-53 14 -95 14 -25 39 -54 55 -63 37 -21 134 -33 155 -19 25 16 -4 33 -72 41
-52 6 -66 12 -85 36 -69 85 39 147 155 90 59 -30 120 -45 197 -51 64 -5 214
11 229 25 15 13 -12 36 -49 43 -32 6 -100 70 -127 119 -9 17 -7 18 24 12 60
-12 126 -36 150 -54 93 -73 233 -114 388 -114 110 0 174 13 184 39 7 18 0 34
-16 34 -6 0 -52 18 -103 40 -85 38 -209 128 -195 143 7 7 105 -20 274 -78 77
-26 171 -50 210 -54 162 -18 334 13 420 75 62 46 52 57 -61 61 -49 2 -115 10
-148 18 -77 20 -165 57 -165 71 0 6 44 22 98 35 105 26 204 29 306 10 105 -19
205 -14 262 13 92 45 194 179 194 253 0 18 -4 33 -9 33 -4 0 -38 -20 -74 -44
-53 -36 -217 -104 -217 -91 0 2 25 20 55 41 31 20 69 55 84 78 16 23 47 55 69
70 23 15 63 51 89 79 78 83 249 228 298 255 19 10 21 8 17 -24 -6 -51 5 -81
32 -88 41 -10 69 9 106 70 58 96 80 114 140 114 57 0 70 14 52 55 -18 38 -56
57 -134 64 l-73 6 73 60 c129 106 233 146 287 111 28 -18 30 -34 13 -83 -12
-34 -35 -42 -56 -21 -8 8 -8 17 -1 30 12 21 4 38 -17 38 -18 0 -37 -47 -30
-75 3 -11 18 -28 35 -38 55 -32 109 11 118 96 4 36 1 48 -19 71 -53 62 -180
39 -302 -53 l-62 -47 28 105 c33 129 35 173 7 218 -50 80 -157 84 -194 8 -20
-43 -19 -58 3 -78 23 -21 56 -22 72 -2 12 15 11 16 -37 30 -18 6 -4 41 22 55
13 7 35 10 50 6 28 -7 65 -59 65 -92 0 -35 -47 -209 -70 -261 l-22 -48 -12 46
c-14 55 -79 137 -114 146 -36 9 -53 -17 -39 -62 18 -60 -16 -112 -103 -158
-50 -26 -72 -66 -54 -95 16 -24 74 -42 103 -31 13 5 26 7 29 4 12 -12 -34 -86
-97 -154 l-69 -73 -25 53 c-14 30 -42 71 -61 93 -26 28 -36 47 -36 72 0 18 5
36 10 39 13 8 13 48 -1 62 -19 19 -46 3 -85 -51 -21 -29 -62 -70 -92 -92 -67
-48 -119 -105 -138 -150 -21 -49 -4 -101 51 -160 25 -27 45 -56 45 -65 0 -53
-57 -127 -130 -168 l-40 -22 2 65 c2 49 -3 76 -21 115 -22 47 -23 54 -11 92
10 28 11 46 4 57 -16 25 -33 26 -43 0 -12 -30 -56 -71 -106 -96 -52 -26 -103
-80 -114 -120 -6 -20 -5 -52 4 -94 17 -82 7 -102 -69 -133 l-37 -16 15 29 c8
15 17 55 21 88 5 50 3 66 -17 103 -33 64 -47 70 -107 42 -59 -28 -82 -51 -149
-152 -28 -42 -64 -88 -81 -102 -31 -26 -108 -59 -170 -72 l-34 -7 21 30 c27
37 76 187 68 207 -9 25 -34 28 -100 12 -91 -22 -196 -89 -305 -193 -53 -50
-115 -101 -138 -113 -40 -20 -71 -29 -47 -13 6 4 37 38 69 77 175 215 267 275
457 300 104 14 199 40 260 71 112 57 249 170 323 268 17 22 39 51 51 65 12 14
27 37 34 51 26 49 130 178 177 220 58 51 117 82 146 78 18 -2 22 -10 22 -38 0
-34 -2 -35 -44 -41 -70 -9 -89 -58 -39 -101 29 -25 76 -22 137 8 41 21 62 40
91 85 43 67 65 143 55 189 -13 58 -93 130 -145 130 -11 0 -20 7 -20 15 0 8
-14 31 -32 51 -31 35 -33 36 -92 32 -38 -3 -81 -14 -113 -30 -29 -14 -53 -22
-53 -18 0 16 100 137 134 163 88 68 184 86 224 44 12 -13 22 -34 21 -48 l0
-24 -9 23 c-8 20 -13 21 -31 11 -18 -9 -21 -17 -16 -50 9 -68 51 -97 116 -79
56 15 86 61 86 131 0 70 -30 118 -98 155 -44 24 -56 26 -145 22 -87 -3 -105
-7 -167 -37 -140 -69 -259 -228 -301 -402 l-16 -67 -47 29 c-66 41 -155 56
-234 40 -76 -16 -176 -79 -206 -130 l-21 -36 0 75 c0 234 -155 469 -327 497
-20 4 -52 16 -70 29 -59 39 -99 47 -208 41 -101 -7 -205 -31 -315 -76 -30 -12
-49 -17 -42 -10 6 7 12 28 12 46 0 44 -30 73 -76 73 -69 0 -134 -100 -119
-183 l6 -32 -126 0 -126 0 6 32 c15 83 -50 183 -119 183 -23 0 -43 -7 -56 -20z
m98 -42 c44 -48 44 -139 0 -176 -31 -25 -99 -18 -183 20 -116 52 -150 61 -215
56 -79 -6 -126 -41 -135 -101 -7 -46 4 -85 29 -106 23 -19 20 -37 -11 -61 -36
-28 -90 -22 -138 14 -58 45 -84 179 -48 249 19 38 33 49 93 78 40 19 56 21
135 16 101 -7 212 -34 298 -72 32 -14 73 -25 92 -25 29 0 36 4 41 27 6 21 2
30 -14 41 -27 17 -28 37 -4 51 26 15 36 13 60 -11z m453 12 c25 -14 24 -34 -3
-52 -16 -11 -20 -20 -14 -41 5 -23 12 -27 41 -27 19 0 60 11 92 25 86 38 197
65 298 72 79 5 95 3 135 -16 60 -29 74 -40 93 -78 36 -70 10 -204 -48 -249
-48 -36 -102 -42 -137 -14 -32 24 -35 42 -12 61 25 21 36 60 29 106 -9 60 -56
95 -135 101 -65 5 -99 -4 -215 -56 -84 -38 -152 -45 -183 -20 -44 37 -44 128
0 176 24 25 31 26 59 12z m-2366 -94 c72 -36 178 -140 218 -213 55 -103 87
-236 63 -268 -12 -17 -14 -15 -21 23 -7 46 -60 159 -112 240 -72 113 -157 180
-268 211 -86 24 -169 -33 -163 -113 2 -30 9 -43 25 -52 28 -13 19 -24 -18 -24
-63 0 -95 83 -58 150 35 61 84 82 189 78 70 -2 96 -8 145 -32z m4490 14 c54
-26 89 -85 80 -134 -9 -45 -39 -76 -74 -76 -37 0 -46 11 -18 24 35 18 36 84 2
124 -87 104 -289 20 -408 -170 -53 -84 -93 -169 -108 -226 -12 -47 -15 -51
-26 -36 -23 31 10 167 64 266 30 55 117 151 171 188 91 62 235 80 317 40z
m-3330 -34 c-76 -44 -115 -146 -116 -303 0 -144 36 -230 107 -253 49 -16 76
-7 98 35 21 38 59 56 79 36 6 -6 11 -30 11 -52 -2 -78 -57 -104 -200 -97 -72
4 -100 10 -128 27 -78 49 -134 177 -116 269 27 144 121 286 222 336 49 24 85
26 43 2z m1986 -27 c78 -55 157 -192 179 -311 18 -92 -38 -220 -116 -269 -28
-17 -56 -23 -128 -27 -143 -7 -198 19 -200 97 0 22 5 46 11 52 20 20 58 2 79
-36 22 -42 49 -51 98 -35 71 23 107 109 107 253 -1 149 -39 260 -102 292 -16
9 -29 20 -29 25 0 13 61 -12 101 -41z m-1520 -29 c35 -11 88 -33 117 -48 l54
-28 -42 -28 c-71 -47 -145 -130 -203 -230 -79 -135 -90 -197 -89 -524 l0 -252
26 -45 c39 -65 137 -131 216 -144 l35 -6 6 -65 c6 -73 23 -110 68 -156 45 -46
93 -65 176 -71 l74 -6 -18 -36 c-10 -20 -24 -53 -30 -73 l-13 -38 -56 0 c-125
0 -212 56 -212 135 0 36 -33 98 -72 134 -34 31 -128 71 -169 71 -13 0 -35 -3
-48 -7 -22 -6 -23 -8 -16 -81 l7 -75 -62 74 c-102 122 -170 188 -239 229 -45
27 -59 40 -45 40 42 0 159 43 201 73 85 60 106 162 53 254 -38 67 -79 96 -144
101 -62 5 -99 -9 -122 -43 -26 -40 -22 -84 10 -112 32 -27 62 -29 88 -6 17 15
18 15 18 -9 0 -31 -34 -56 -104 -74 -69 -19 -125 -17 -230 6 -183 40 -278 107
-345 242 -48 95 -41 163 19 188 28 12 33 11 55 -10 26 -24 24 -46 -2 -35 -24
9 -53 -4 -53 -24 0 -25 46 -68 81 -76 44 -10 82 2 120 39 19 19 50 40 69 48
43 18 61 39 69 79 l6 31 33 -50 c18 -28 51 -65 73 -82 37 -30 44 -32 132 -34
85 -1 96 1 147 29 88 48 134 144 116 240 -9 47 -38 75 -78 75 -25 0 -41 -10
-74 -45 -38 -41 -44 -44 -68 -35 -43 16 -76 102 -76 198 0 91 22 200 47 238
l18 28 7 -61 c14 -126 74 -199 171 -210 105 -12 179 86 117 152 -17 18 -23 36
-22 57 3 40 16 56 56 67 49 14 79 12 147 -9z m1144 -4 c34 -23 37 -72 7 -108
-44 -53 -28 -109 42 -145 40 -21 107 -12 157 22 49 32 77 90 87 178 l7 61 18
-28 c25 -38 47 -147 47 -238 0 -96 -33 -182 -76 -198 -24 -9 -30 -6 -68 35
-33 35 -49 45 -74 45 -40 0 -69 -28 -78 -75 -18 -96 28 -192 116 -240 51 -28
62 -30 147 -29 88 2 95 4 132 34 22 17 55 54 73 82 l33 50 6 -31 c8 -40 26
-61 69 -79 19 -8 50 -29 69 -48 38 -37 76 -49 120 -39 35 7 81 50 81 75 0 21
-25 33 -51 25 -28 -9 -30 10 -4 35 22 21 27 22 55 10 60 -25 67 -93 19 -188
-67 -135 -162 -202 -345 -242 -105 -23 -161 -25 -230 -6 -70 18 -104 43 -104
74 0 24 1 24 18 9 26 -23 56 -21 88 6 32 28 36 72 10 112 -23 34 -60 48 -122
43 -65 -5 -106 -34 -144 -101 -53 -92 -32 -194 53 -254 42 -30 159 -73 201
-73 14 0 0 -13 -45 -40 -69 -41 -137 -107 -239 -229 l-62 -74 7 75 c7 73 6 75
-16 81 -13 4 -35 7 -48 7 -41 0 -135 -40 -169 -71 -39 -36 -72 -98 -72 -134 0
-79 -87 -135 -212 -135 l-56 0 -13 38 c-6 20 -20 53 -30 73 l-18 36 74 6 c83
6 131 25 176 71 45 46 62 83 68 156 l6 65 35 6 c79 13 177 79 216 144 l26 45
0 252 c1 327 -10 389 -89 524 -58 100 -132 183 -203 230 l-42 28 59 30 c128
65 230 80 288 42z m-532 -45 c148 -38 287 -139 367 -264 96 -152 112 -226 112
-524 -1 -263 -5 -286 -52 -333 -47 -47 -133 -89 -190 -93 l-45 -3 3 -65 c5
-96 -23 -149 -105 -200 -36 -23 -46 -24 -218 -24 -172 0 -182 1 -218 24 -82
51 -110 104 -105 200 l3 65 -45 3 c-57 4 -143 46 -190 93 -28 28 -39 49 -44
83 -12 79 -9 449 5 533 27 173 158 358 316 444 139 77 268 96 406 61z m-2187
-165 c64 -30 120 -79 144 -127 22 -42 42 -119 31 -119 -4 0 -22 21 -40 46 -58
80 -180 163 -241 164 -14 0 -32 4 -40 10 -12 7 -12 12 4 29 26 28 78 27 142
-3z m4260 3 c16 -17 16 -22 4 -29 -8 -6 -26 -10 -40 -10 -61 -1 -183 -84 -241
-164 -18 -25 -36 -46 -40 -46 -11 0 9 77 31 119 54 107 233 188 286 130z
m-4364 -84 c63 -8 145 -69 211 -155 l52 -70 -3 -74 -4 -75 -49 60 c-152 182
-319 228 -319 87 0 -46 25 -74 75 -84 46 -8 40 -29 -9 -28 -82 3 -178 121
-178 221 0 39 5 51 35 81 33 33 90 54 127 47 8 -2 36 -6 62 -10z m4444 5 c15
0 41 -15 65 -38 36 -33 41 -42 41 -84 0 -101 -95 -219 -178 -222 -49 -1 -55
20 -9 28 50 10 75 38 75 84 0 141 -167 95 -319 -87 l-49 -60 -4 75 -3 75 55
71 c70 91 146 145 220 157 30 5 61 7 68 5 8 -2 25 -4 38 -4z m-3722 -59 c60
-27 104 -67 133 -125 32 -63 36 -122 8 -142 -18 -13 -21 -13 -26 3 -4 10 -13
32 -19 50 -7 18 -28 49 -48 69 -102 106 -250 97 -327 -20 -103 -155 -43 -329
161 -465 122 -82 260 -116 459 -116 75 1 99 5 147 27 60 28 81 55 80 101 -1
56 -72 95 -85 46 -5 -17 -9 -19 -26 -9 -28 14 -27 55 1 74 52 37 134 9 178
-60 34 -54 37 -86 14 -143 -19 -48 -70 -85 -156 -114 -52 -17 -86 -20 -188
-20 -203 2 -339 53 -503 188 -76 63 -129 130 -181 228 -32 61 -36 77 -36 143
0 114 14 156 70 208 107 100 230 128 344 77z m3127 -7 c29 -14 73 -46 99 -70
56 -52 70 -94 70 -208 0 -66 -4 -82 -36 -143 -52 -98 -105 -165 -181 -228
-164 -135 -300 -186 -503 -188 -102 0 -136 3 -188 20 -86 29 -137 66 -156 114
-23 57 -20 89 14 143 44 69 126 97 178 60 28 -19 29 -60 1 -74 -17 -10 -21 -8
-26 9 -13 49 -84 10 -85 -46 -1 -46 20 -73 80 -101 48 -22 72 -26 147 -27 199
0 337 34 459 116 204 136 264 310 161 465 -77 117 -225 126 -327 20 -20 -20
-41 -51 -48 -69 -6 -18 -15 -40 -19 -50 -5 -16 -8 -16 -26 -3 -45 33 0 167 77
229 85 69 211 81 309 31z m-4498 -203 c17 -25 49 -53 83 -72 77 -44 58 -77
-28 -48 -34 11 -41 10 -55 -4 -13 -13 -14 -23 -5 -56 11 -46 10 -47 -23 -25
-13 8 -38 14 -57 12 -35 -3 -35 -2 -22 -79 6 -37 -3 -54 -22 -41 -6 4 -28 35
-49 70 -45 74 -72 98 -128 113 -51 14 -37 28 35 36 46 5 62 1 107 -22 47 -23
55 -25 68 -12 12 11 12 19 4 35 -6 11 -11 43 -11 70 0 38 7 59 33 98 l32 49 6
-42 c3 -22 17 -60 32 -82z m5696 72 c24 -36 31 -57 31 -95 0 -27 -5 -59 -11
-70 -8 -16 -8 -24 4 -35 13 -13 21 -11 68 12 45 23 61 27 107 22 72 -8 86 -22
35 -36 -56 -15 -83 -39 -128 -113 -21 -35 -43 -66 -49 -70 -19 -13 -28 4 -22
41 13 77 13 76 -22 79 -19 2 -44 -4 -57 -12 -33 -22 -34 -21 -23 25 9 33 8 43
-5 56 -14 14 -21 15 -55 4 -86 -29 -105 4 -27 48 65 37 115 105 115 158 0 18
2 33 4 33 2 0 18 -21 35 -47z m-4344 -4 c47 -32 86 -89 87 -128 2 -52 -60
-107 -107 -95 l-25 6 25 20 c34 27 31 54 -10 95 -31 31 -40 35 -71 30 -125
-20 -144 -157 -42 -304 38 -56 22 -55 -30 1 -57 62 -94 139 -94 196 0 80 54
174 117 201 34 15 112 4 150 -22z m3103 1 c44 -33 84 -117 84 -178 0 -59 -36
-135 -94 -198 -52 -56 -68 -57 -30 -1 43 62 64 116 64 167 0 84 -31 125 -106
137 -31 5 -40 1 -71 -30 -41 -41 -44 -68 -10 -95 l25 -20 -25 -6 c-29 -8 -51
2 -84 38 -41 44 -27 103 38 164 61 57 149 66 209 22z m-2672 -129 c65 -12 155
-7 202 10 35 13 26 -8 -15 -35 -69 -45 -177 -54 -244 -20 -27 14 -81 75 -92
106 -4 11 8 6 38 -16 32 -25 61 -37 111 -45z m2207 62 c-11 -31 -64 -93 -92
-107 -67 -34 -175 -25 -243 20 -42 27 -51 48 -15 35 92 -34 245 -17 310 34 23
19 43 34 44 34 1 1 0 -7 -4 -16z m-3465 -303 c81 -73 93 -130 38 -185 -69 -69
-85 -127 -49 -182 17 -26 17 -26 -4 -15 -11 7 -34 26 -49 43 -46 51 -77 81
-133 128 -68 56 -87 98 -67 144 7 19 27 49 43 68 49 57 63 82 63 115 l0 31 48
-46 c27 -25 76 -71 110 -101z m4752 53 c8 -10 28 -33 44 -52 15 -19 35 -49 42
-68 20 -46 1 -88 -67 -144 -56 -47 -87 -77 -133 -128 -15 -17 -38 -36 -49 -43
-21 -11 -21 -11 -3 17 35 54 23 105 -42 172 -63 65 -55 116 30 193 34 30 82
75 107 100 l46 45 6 -37 c3 -20 12 -45 19 -55z m-4414 -341 c23 -12 54 -36 69
-54 26 -30 27 -36 19 -93 -4 -33 -7 -77 -7 -98 1 -25 -3 -37 -10 -34 -7 2 -45
15 -86 28 -47 15 -79 32 -88 46 -19 29 -12 129 13 200 16 44 21 50 34 38 8 -7
34 -22 56 -33z m4011 -120 c6 -85 -6 -101 -98 -131 -41 -13 -79 -26 -86 -28
-7 -3 -11 9 -10 34 0 21 -3 65 -7 98 -8 57 -7 63 19 93 15 18 49 44 76 57 26
14 51 30 54 36 12 18 47 -91 52 -159z m-3632 -34 c14 -18 46 -64 73 -103 26
-38 66 -84 90 -102 l43 -33 -33 6 c-124 22 -236 48 -256 61 -47 30 -70 136
-41 201 l18 43 40 -21 c22 -11 52 -35 66 -52z m3265 30 c28 -65 5 -172 -42
-201 -20 -13 -132 -39 -256 -61 l-33 -6 43 33 c24 18 64 64 90 102 75 109 96
134 136 155 20 10 38 19 40 20 2 0 11 -19 22 -42z m-4147 -32 c53 -29 178 -66
332 -100 118 -26 118 -28 8 -45 -155 -24 -237 -6 -315 67 -42 39 -88 102 -75
102 2 0 25 -11 50 -24z m4943 -4 c-8 -15 -37 -49 -64 -74 -78 -73 -160 -91
-315 -67 -110 17 -110 19 8 45 155 34 278 71 328 99 55 30 60 30 43 -3z
m-3603 -54 c73 -37 130 -80 224 -170 58 -57 83 -86 70 -83 -12 2 -69 11 -127
20 -58 9 -117 20 -132 25 -65 21 -133 113 -153 209 l-7 34 42 -7 c23 -4 61
-16 83 -28z m2342 0 c-20 -95 -88 -187 -153 -208 -15 -5 -74 -16 -132 -25 -58
-9 -115 -18 -127 -21 -32 -6 171 183 240 225 64 38 121 60 155 61 21 0 23 -3
17 -32z m-1782 -106 c76 -29 137 -99 137 -156 0 -12 11 -45 25 -74 14 -30 25
-55 25 -57 0 -2 -24 9 -52 25 -29 15 -79 38 -111 51 -33 13 -67 35 -77 49 -18
25 -44 156 -34 172 8 13 35 10 87 -10z m1191 10 c10 -16 -16 -147 -34 -172
-10 -14 -44 -36 -77 -49 -32 -13 -82 -36 -110 -51 -29 -16 -53 -27 -53 -25 0
2 11 27 25 57 14 29 25 62 25 74 0 30 27 79 60 111 45 42 150 78 164 55z
m-2120 -102 c61 -11 136 -23 166 -28 l55 -8 -50 -16 c-27 -9 -104 -36 -170
-59 l-120 -44 -150 0 c-118 0 -163 4 -209 19 -63 19 -62 36 2 36 49 0 191 38
232 62 19 11 40 29 48 39 17 25 55 24 196 -1z m3158 1 c8 -10 29 -28 48 -39
41 -24 183 -62 232 -62 64 0 65 -17 2 -36 -46 -15 -91 -19 -209 -19 l-150 0
-120 44 c-66 23 -142 50 -170 59 l-50 16 60 9 c33 5 103 17 155 27 132 25 185
25 202 1z m-1625 -160 c20 -68 17 -138 -6 -151 -27 -14 -74 -13 -96 3 -27 21
-16 129 20 202 l28 55 20 -33 c11 -17 26 -52 34 -76z m-982 78 c166 -26 171
-28 106 -45 -29 -8 -96 -39 -148 -69 -120 -68 -229 -93 -378 -87 l-70 3 94 44
c74 36 106 58 155 109 42 44 69 65 86 65 14 1 84 -8 155 -20z m2099 -44 c50
-51 84 -75 157 -110 l94 -44 -70 -3 c-149 -6 -258 19 -378 87 -52 30 -119 61
-148 69 -30 8 -52 16 -49 17 19 7 262 47 293 48 33 1 44 -6 101 -64z m-1641
-65 l69 -34 -52 -18 c-29 -10 -58 -22 -64 -27 -26 -21 -125 -41 -203 -41 l-83
0 56 69 c31 39 68 75 82 80 47 18 122 7 195 -29z m1135 29 c19 -6 52 -37 86
-80 l56 -69 -83 0 c-82 0 -170 19 -211 45 -12 7 -40 19 -64 26 l-44 13 29 15
c105 58 169 72 231 50z"/>
<path d="M3432 3406 c-15 -20 -29 -26 -59 -26 -73 0 -106 -53 -68 -108 35 -49
144 -92 200 -78 34 9 56 57 56 124 0 71 -23 106 -73 110 -28 2 -40 -2 -56 -22z
m78 -35 c16 -31 12 -96 -8 -121 -15 -18 -24 -21 -55 -15 -48 9 -119 60 -115
83 2 13 16 18 59 20 49 3 58 6 67 27 14 30 37 32 52 6z"/>
<path d="M3751 3404 c-45 -57 -22 -196 34 -210 56 -14 165 29 200 78 38 55 5
108 -68 108 -30 0 -44 6 -59 25 -27 35 -79 34 -107 -1z m81 -39 c9 -21 18 -24
67 -27 43 -2 57 -7 59 -20 4 -23 -67 -74 -115 -83 -31 -6 -40 -3 -55 15 -32
39 -19 140 18 140 8 0 19 -11 26 -25z"/>
<path d="M3627 3284 c-4 -4 -7 -20 -7 -36 0 -44 -24 -81 -69 -106 -51 -29 -55
-57 -8 -67 41 -9 77 -42 77 -71 0 -32 10 -54 25 -54 15 0 25 22 25 54 0 29 36
62 78 71 46 10 42 37 -12 69 -44 26 -63 56 -68 111 -3 28 -25 44 -41 29z m50
-195 c-15 -11 -28 -21 -29 -22 -2 -1 -16 8 -32 20 l-28 23 28 29 28 30 29 -29
30 -30 -26 -21z"/>
<path d="M3161 3165 c-36 -42 -41 -85 -11 -115 37 -37 110 -14 110 36 0 30
-22 32 -41 3 -9 -13 -20 -18 -31 -14 -24 10 -22 29 6 62 l24 28 71 -35 c59
-28 76 -32 98 -24 37 13 37 40 0 37 -15 -1 -52 11 -83 28 -75 39 -104 38 -143
-6z"/>
<path d="M3986 3171 c-31 -17 -68 -29 -83 -28 -37 3 -37 -24 0 -37 22 -8 39
-4 98 24 l71 35 24 -28 c28 -33 30 -52 7 -62 -12 -4 -23 1 -32 14 -19 29 -41
27 -41 -3 0 -50 73 -73 110 -36 30 30 25 73 -11 115 -39 44 -68 45 -143 6z"/>
<path d="M3307 3032 c-16 -9 -31 -29 -34 -44 -5 -24 -11 -28 -38 -28 -82 0
-121 -116 -58 -173 16 -14 19 -27 16 -65 -8 -79 44 -122 122 -101 18 5 36 16
39 25 5 13 10 13 32 -5 29 -23 83 -28 115 -11 31 17 52 67 44 108 -6 30 -3 38
17 53 19 15 23 27 23 69 0 46 -4 55 -30 76 -16 13 -42 24 -57 24 -20 0 -32 8
-43 29 -30 60 -92 78 -148 43z m95 -39 c32 -29 22 -41 -37 -45 -60 -3 -70 8
-38 44 20 22 51 23 75 1z m-150 -79 c5 -5 -19 -92 -28 -103 -10 -11 -34 26
-34 52 0 38 42 72 62 51z m276 -14 c26 -24 28 -52 6 -74 -23 -24 -31 -20 -37
20 -3 20 -14 45 -23 55 -16 18 -16 19 8 19 13 0 34 -9 46 -20z m-100 -12 c44
-48 36 -115 -17 -143 -40 -20 -63 -19 -95 6 -39 31 -49 63 -32 103 17 41 39
55 87 56 24 0 42 -7 57 -22z m76 -182 c-14 -47 -51 -60 -88 -33 -17 13 -16 15
18 35 20 12 39 29 43 38 6 15 7 15 20 -2 7 -10 10 -27 7 -38z m-224 19 c13
-14 29 -25 37 -25 16 0 17 -12 1 -28 -20 -20 -66 -15 -78 9 -12 21 -6 69 8 69
5 0 19 -11 32 -25z"/>
<path d="M3872 3034 c-12 -8 -29 -28 -37 -45 -11 -21 -23 -29 -43 -29 -15 0
-40 -11 -57 -24 -26 -21 -30 -30 -30 -76 0 -42 4 -54 23 -69 20 -15 23 -23 17
-53 -8 -41 13 -91 44 -108 32 -17 86 -12 115 11 22 18 27 18 32 5 3 -9 21 -20
39 -25 78 -21 130 22 122 101 -3 38 0 51 16 65 63 57 24 173 -58 173 -27 0
-33 4 -38 28 -11 52 -97 80 -145 46z m90 -41 c10 -9 18 -23 18 -32 0 -13 -10
-15 -55 -13 -58 4 -66 13 -38 44 20 22 51 23 75 1z m-146 -92 c-9 -10 -20 -35
-23 -55 -3 -20 -9 -36 -14 -36 -14 0 -39 31 -39 50 0 26 39 60 68 60 24 0 24
-1 8 -19z m267 5 c21 -16 23 -69 2 -86 -19 -16 -18 -16 -38 42 -19 59 -6 75
36 44z m-111 -7 c28 -15 50 -72 39 -102 -12 -30 -57 -67 -83 -67 -57 0 -106
57 -93 110 15 60 81 89 137 59z m-109 -195 c30 -16 30 -17 11 -31 -46 -34
-110 18 -84 68 l12 21 14 -21 c9 -12 29 -28 47 -37z m193 22 c9 -36 -12 -66
-44 -66 -27 0 -52 15 -52 32 0 4 6 8 13 8 8 0 24 11 37 25 29 31 38 31 46 1z"/>
<path d="M3593 2652 c-85 -101 -106 -177 -57 -209 22 -14 33 -15 67 -6 31 9
53 9 83 0 84 -22 120 40 73 128 -27 50 -99 135 -114 135 -7 0 -30 -22 -52 -48z
m127 -104 c11 -21 20 -44 20 -52 0 -22 -29 -27 -62 -10 -29 15 -34 15 -64 0
-36 -17 -64 -12 -64 11 0 21 29 73 64 115 l31 37 28 -32 c15 -18 36 -49 47
-69z"/>
<path d="M3162 2570 c-20 -33 -14 -71 19 -114 75 -97 162 -126 252 -86 53 24
54 35 3 44 -33 6 -66 35 -157 136 -29 32 -44 40 -71 40 -22 0 -37 -6 -46 -20z
m123 -92 c27 -37 59 -70 70 -73 18 -6 18 -8 3 -12 -43 -11 -168 91 -168 137 0
41 42 18 95 -52z"/>
<path d="M4011 2550 c-91 -101 -124 -130 -157 -136 -51 -9 -50 -20 3 -44 90
-40 177 -11 252 86 51 66 36 134 -29 134 -25 0 -40 -9 -69 -40z m89 -20 c0
-46 -125 -148 -168 -137 -15 4 -15 6 3 12 11 3 36 27 54 53 19 26 44 57 55 70
25 28 56 29 56 2z"/>
<path d="M3496 2258 c-15 -20 -16 -21 -34 -5 -38 35 -56 12 -26 -32 13 -18 14
-28 5 -47 -9 -20 -8 -26 6 -31 10 -4 21 1 29 12 14 18 16 18 62 2 26 -9 55
-17 64 -17 11 0 18 -10 20 -27 2 -20 9 -28 23 -28 14 0 21 8 23 28 2 17 9 27
20 27 9 0 38 8 64 17 46 16 48 16 62 -2 8 -11 19 -16 29 -12 14 5 15 11 6 31
-9 19 -8 29 5 47 30 44 12 67 -26 32 -18 -16 -19 -15 -34 5 -30 43 -59 18 -34
-28 12 -22 -3 -33 -57 -44 -30 -7 -32 -6 -35 26 -2 25 -8 33 -23 33 -15 0 -21
-8 -23 -33 -3 -32 -5 -33 -35 -26 -54 11 -69 22 -57 44 25 46 -4 71 -34 28z"/>
</g>
</svg>
