<?xml version="1.0" standalone="no"?>
<!DOCTYPE svg PUBLIC "-//W3C//DTD SVG 20010904//EN"
 "http://www.w3.org/TR/2001/REC-SVG-20010904/DTD/svg10.dtd">
<svg version="1.0" xmlns="http://www.w3.org/2000/svg"
 width="400.000000pt" height="400.000000pt" viewBox="0 0 400.000000 400.000000"
 preserveAspectRatio="xMidYMid meet">

<g transform="translate(0.000000,400.000000) scale(0.100000,-0.100000)"
fill="#000000" stroke="none">
<path d="M864 3141 c-11 -5 -32 -23 -47 -40 -31 -37 -25 -71 16 -85 23 -8 33
-3 89 49 35 32 63 63 63 69 0 14 -92 18 -121 7z m32 -66 c-30 -31 -48 -44 -60
-39 -45 17 7 84 66 84 l38 0 -44 -45z"/>
<path d="M971 3084 c-242 -259 -199 -658 90 -827 101 -60 253 -90 334 -68 47
12 92 51 101 86 14 55 -57 125 -126 125 -41 0 -90 -31 -90 -58 0 -13 -4 -12
-20 6 -26 28 -31 28 -60 -3 -13 -14 -38 -29 -54 -33 -42 -11 -39 -34 7 -49 48
-16 85 -7 99 23 13 29 20 30 35 5 7 -11 26 -22 43 -26 57 -12 105 42 66 75
-19 15 -58 9 -64 -9 -3 -10 1 -12 16 -9 21 6 47 -13 35 -25 -10 -11 -71 -8
-78 4 -13 20 5 57 34 69 37 15 94 -1 116 -33 47 -67 -14 -129 -126 -129 -242
0 -449 174 -489 412 -27 159 41 350 169 475 23 21 41 43 41 47 0 19 -22 3 -79
-58z m269 -763 c0 -26 -24 -43 -57 -39 l-28 3 33 18 c17 10 32 22 32 27 0 6 5
10 10 10 6 0 10 -8 10 -19z"/>
<path d="M2930 3143 c0 -4 10 -17 22 -30 17 -18 18 -23 6 -23 -12 0 -17 -17
-23 -75 -7 -83 -4 -95 29 -95 48 0 63 65 31 132 -15 31 -14 31 25 -11 74 -80
130 -231 130 -351 0 -69 -21 -154 -56 -222 -33 -65 -132 -164 -200 -200 -105
-57 -267 -78 -333 -44 -66 35 -66 104 1 138 46 24 92 17 115 -18 21 -32 3 -54
-44 -54 -28 0 -34 4 -31 18 3 11 12 16 27 14 29 -3 23 22 -6 26 -23 3 -53 -22
-53 -43 0 -8 11 -22 25 -31 22 -14 32 -15 65 -5 24 7 41 19 45 32 7 20 8 19
25 -9 24 -38 47 -46 95 -30 52 17 54 34 9 53 -21 9 -46 25 -56 35 -23 25 -35
25 -50 1 -11 -18 -13 -17 -43 15 -36 38 -72 44 -129 20 -71 -30 -90 -114 -36
-159 46 -39 93 -50 174 -43 134 12 250 69 344 169 155 166 176 426 50 635 -58
95 -158 194 -158 155z m59 -165 c1 -22 -4 -28 -20 -28 -19 0 -21 4 -14 37 4
21 9 42 13 47 7 13 20 -22 21 -56z m-214 -658 c10 -11 24 -20 32 -20 7 0 13
-4 13 -10 0 -19 -59 -11 -70 9 -22 42 -6 55 25 21z"/>
<path d="M2995 3140 c-3 -5 4 -17 17 -27 12 -10 41 -37 63 -60 47 -50 77 -55
101 -18 15 23 15 29 3 52 -21 40 -67 63 -126 63 -28 0 -55 -4 -58 -10z m142
-42 c24 -22 30 -52 13 -63 -14 -8 -31 4 -69 48 l-33 37 33 0 c20 0 42 -9 56
-22z"/>
<path d="M990 3050 c-34 -66 -22 -130 25 -130 36 0 44 25 31 103 -12 78 -26
85 -56 27z m39 -71 c1 -32 -8 -42 -26 -28 -16 14 -16 29 -2 66 10 26 12 27 19
8 5 -11 9 -32 9 -46z"/>
<path d="M794 2986 c-67 -29 -97 -109 -52 -140 31 -22 53 -5 73 53 9 27 23 55
31 62 11 9 12 15 3 25 -14 17 -16 17 -55 0z m2 -68 c-25 -55 -49 -69 -54 -30
-2 14 7 33 27 52 44 44 53 37 27 -22z"/>
<path d="M3134 2986 c-3 -8 3 -28 14 -43 11 -15 23 -43 27 -61 12 -56 73 -65
90 -12 8 25 -21 87 -49 105 -37 24 -75 29 -82 11z m81 -47 c27 -33 31 -74 5
-74 -10 0 -50 80 -50 103 0 11 23 -4 45 -29z"/>
<path d="M916 2951 c-4 -5 -9 -30 -12 -55 -8 -52 13 -96 45 -96 47 0 51 60 10
126 -21 34 -33 41 -43 25z m44 -77 c8 -23 9 -39 2 -46 -13 -13 -45 20 -38 39
3 8 6 24 6 34 0 29 17 14 30 -27z"/>
<path d="M3032 2935 c-48 -60 -49 -135 -2 -135 36 0 53 29 48 87 -6 69 -19 83
-46 48z m28 -59 c0 -33 -20 -62 -33 -49 -17 16 2 83 23 83 6 0 10 -15 10 -34z"/>
<path d="M1194 2925 c-4 -8 -4 -25 -1 -37 4 -14 -1 -26 -15 -38 -22 -17 -18
-40 8 -40 16 0 19 -16 4 -25 -15 -9 -12 -51 5 -65 8 -7 14 -20 13 -29 -2 -10
5 -17 19 -19 16 -2 23 -11 25 -35 2 -22 9 -33 22 -35 11 -3 27 -13 36 -25 36
-44 70 5 92 130 14 85 7 115 -34 142 -18 12 -55 37 -82 56 -52 38 -83 44 -92
20z m100 -53 c27 -30 12 -42 -52 -41 -48 0 -54 2 -34 11 24 12 27 24 13 48
-26 39 34 25 73 -18z m80 -64 c21 -30 4 -60 -32 -56 -21 2 -28 9 -30 32 -6 46
35 62 62 24z m-101 -95 c-32 -26 -48 -29 -39 -8 3 8 -4 21 -16 29 -24 17 -17
33 25 51 31 13 32 12 45 -18 12 -30 12 -33 -15 -54z m103 -20 c-16 -92 -46
-139 -46 -73 0 33 -11 38 -30 15 -9 -11 -16 -13 -23 -6 -17 17 37 89 70 94 15
2 30 5 32 6 2 0 0 -16 -3 -36z"/>
<path d="M2703 2911 c-23 -16 -44 -35 -48 -41 -4 -6 -18 -15 -30 -20 -13 -5
-32 -21 -41 -35 -15 -23 -15 -34 -5 -95 21 -131 57 -185 93 -141 9 12 23 21
32 21 19 0 35 27 29 51 -4 14 0 19 15 19 14 0 27 14 43 45 21 43 22 46 5 64
-17 19 -17 20 3 31 25 13 27 36 4 48 -10 6 -17 23 -17 43 -1 46 -29 49 -83 10z
m58 -29 c-9 -17 -7 -24 11 -37 22 -15 20 -16 -37 -13 -73 4 -78 20 -20 59 42
29 64 25 46 -9z m-91 -72 c16 -31 -4 -62 -38 -58 -19 2 -28 10 -30 26 -7 47
47 72 68 32z m83 -30 c30 -15 35 -35 12 -44 -8 -3 -15 -15 -15 -26 0 -19 -1
-20 -29 -5 -17 8 -32 19 -35 24 -7 10 23 73 32 68 4 -2 19 -9 35 -17z m-69
-91 c25 -30 35 -69 17 -69 -5 0 -14 7 -21 15 -17 21 -31 8 -24 -22 10 -40 -19
-24 -32 18 -27 84 -27 89 5 89 20 0 37 -9 55 -31z"/>
<path d="M727 2800 c-49 -38 -49 -134 0 -146 32 -8 53 15 53 58 0 16 7 42 15
59 9 16 13 34 10 39 -10 17 -51 11 -78 -10z m36 -61 c-6 -39 -13 -55 -26 -57
-36 -7 -34 61 4 99 11 11 23 19 25 16 2 -2 1 -28 -3 -58z"/>
<path d="M3183 2798 c3 -13 12 -50 19 -83 12 -54 16 -60 40 -63 36 -4 63 35
53 78 -10 48 -51 90 -87 90 -26 0 -30 -3 -25 -22z m77 -38 c5 -10 10 -32 10
-49 0 -24 -4 -31 -19 -31 -14 0 -21 10 -26 38 -3 20 -9 48 -12 61 -5 21 -4 22
15 12 12 -6 26 -20 32 -31z"/>
<path d="M866 2794 c-20 -53 9 -144 46 -144 55 0 62 45 17 113 -32 49 -52 59
-63 31z m57 -68 c17 -32 18 -39 6 -47 -20 -12 -39 10 -46 56 -8 49 13 44 40
-9z"/>
<path d="M3062 2777 c-47 -70 -46 -127 3 -127 37 0 57 38 53 101 -4 66 -23 74
-56 26z m38 -29 c0 -37 -11 -66 -26 -72 -24 -9 -29 24 -9 60 21 39 35 44 35
12z"/>
<path d="M1017 2779 c-50 -29 -36 -131 28 -206 45 -53 164 -114 235 -121 63
-6 64 8 2 30 -58 21 -127 66 -181 118 -42 41 -56 78 -25 66 45 -17 60 59 19
99 -26 27 -49 31 -78 14z m64 -30 c30 -30 21 -55 -19 -51 -27 3 -32 0 -32 -18
0 -30 16 -58 59 -104 28 -31 31 -36 11 -24 -65 40 -115 182 -72 207 24 15 29
14 53 -10z"/>
<path d="M2902 2783 c-15 -6 -42 -56 -42 -77 0 -24 30 -47 53 -40 l20 6 -19
-33 c-25 -44 -145 -135 -206 -157 -58 -20 -61 -32 -10 -32 50 0 187 67 229
111 39 41 72 113 73 156 0 48 -53 84 -98 66z m53 -27 c46 -33 -6 -169 -80
-208 -11 -6 1 12 28 40 35 39 47 59 47 83 0 30 -2 31 -30 26 -26 -6 -30 -4
-30 15 0 20 26 58 40 58 3 0 15 -6 25 -14z"/>
<path d="M741 2606 c-34 -36 -40 -107 -12 -135 25 -25 69 -37 83 -23 8 8 6 28
-5 69 -9 32 -13 70 -10 86 4 22 2 27 -14 27 -11 0 -30 -11 -42 -24z m44 -103
c9 -39 -11 -45 -40 -13 -19 21 -16 70 8 98 10 13 13 10 18 -19 4 -19 10 -49
14 -66z"/>
<path d="M874 2615 c-15 -39 51 -145 91 -145 16 0 45 33 45 53 0 16 -47 59
-99 90 -28 16 -32 17 -37 2z m74 -55 c33 -20 45 -60 17 -60 -18 0 -51 35 -58
61 -6 24 0 24 41 -1z"/>
<path d="M3039 2589 c-65 -44 -76 -63 -54 -95 21 -32 41 -30 80 9 34 34 56
101 39 117 -5 4 -34 -9 -65 -31z m41 -16 c0 -22 -42 -74 -58 -71 -30 6 -25 34
10 57 35 22 48 26 48 14z"/>
<path d="M3187 2624 c-4 -4 -4 -18 -1 -31 4 -13 -1 -46 -10 -74 -13 -39 -14
-54 -5 -65 16 -20 42 -17 73 7 20 16 26 29 26 60 0 22 -7 53 -15 68 -17 34
-51 51 -68 35z m63 -91 c0 -36 -18 -63 -42 -63 -16 0 -19 4 -14 23 4 12 10 42
13 66 l6 44 18 -22 c11 -13 19 -34 19 -48z"/>
<path d="M811 2407 c-25 -75 35 -170 95 -150 50 17 52 37 10 83 -21 23 -42 55
-48 71 -14 40 -43 38 -57 -4z m82 -74 c31 -35 29 -53 -7 -53 -34 0 -48 23 -53
83 l-4 52 18 -25 c10 -13 31 -39 46 -57z"/>
<path d="M960 2418 c0 -25 37 -66 77 -87 49 -25 113 -6 113 33 0 35 -29 53
-95 61 -33 4 -68 9 -77 11 -14 4 -18 -1 -18 -18z m153 -30 c14 -7 15 -13 6
-29 -9 -17 -17 -20 -41 -15 -34 7 -88 42 -88 58 0 11 94 1 123 -14z"/>
<path d="M2940 2428 c-73 -10 -110 -29 -110 -57 0 -26 32 -51 65 -51 37 0 107
41 124 73 12 23 9 49 -7 46 -4 -1 -36 -6 -72 -11z m44 -39 c-25 -28 -80 -51
-105 -44 -27 9 -24 43 4 49 12 3 31 7 42 9 11 3 33 5 49 6 29 1 29 1 10 -20z"/>
<path d="M3111 2403 c-10 -21 -31 -49 -45 -62 -33 -31 -33 -56 -1 -77 28 -19
53 -13 85 21 40 43 37 155 -5 155 -8 0 -23 -17 -34 -37z m46 -40 c-8 -50 -33
-83 -62 -83 -30 0 -39 14 -19 31 8 7 27 32 41 56 28 49 48 47 40 -4z"/>
<path d="M966 2264 c-20 -53 11 -117 74 -153 46 -26 87 -22 116 10 28 31 3 65
-71 95 -33 13 -66 33 -74 44 -16 24 -37 26 -45 4z m52 -43 c15 -10 47 -25 72
-33 37 -12 45 -19 45 -39 0 -22 -4 -24 -44 -23 -38 1 -49 7 -78 37 -18 20 -33
46 -33 57 0 25 5 25 38 1z"/>
<path d="M2958 2250 c-15 -15 -48 -33 -73 -40 -74 -21 -90 -78 -30 -107 32
-15 37 -15 74 2 70 31 107 88 92 142 -10 36 -29 37 -63 3z m42 -32 c-1 -65
-114 -126 -150 -82 -17 20 -1 35 62 58 25 9 52 24 58 32 18 21 30 17 30 -8z"/>
<path d="M1837 2073 c-4 -3 -7 -17 -7 -31 0 -21 -3 -23 -22 -17 -95 29 -130
37 -183 38 -39 1 -71 -4 -92 -15 -18 -9 -46 -19 -61 -23 -73 -16 -154 -132
-167 -240 l-7 -55 -34 29 c-33 29 -89 51 -129 51 -11 0 -40 -9 -64 -20 -24
-11 -45 -19 -46 -18 0 2 -9 29 -18 60 -54 175 -251 273 -354 176 -45 -42 -20
-138 36 -138 41 0 70 63 36 76 -21 8 0 34 27 34 32 0 95 -38 127 -77 39 -47
39 -58 1 -38 -46 24 -83 19 -113 -15 -15 -16 -33 -30 -40 -30 -18 0 -53 -39
-62 -68 -10 -33 36 -122 74 -145 38 -22 78 -22 90 1 12 23 3 37 -32 46 -19 5
-27 12 -25 24 10 51 99 -10 175 -119 126 -183 227 -254 388 -275 95 -13 183
-73 255 -174 35 -49 5 -34 -71 35 -81 75 -133 105 -187 108 -35 2 -37 1 -34
-27 2 -17 12 -47 22 -68 21 -44 14 -46 -46 -19 -27 12 -56 38 -82 73 -46 62
-69 83 -99 92 -34 11 -57 -31 -51 -94 6 -55 2 -59 -29 -30 -18 16 -20 25 -13
56 10 45 -1 77 -36 101 -15 10 -43 33 -62 51 -19 18 -37 31 -39 28 -3 -2 -6
-26 -8 -53 -2 -26 -7 -68 -12 -93 l-9 -45 -42 41 c-23 23 -42 48 -42 56 0 9
13 32 30 53 16 21 30 45 30 54 0 22 -41 77 -77 104 -16 12 -43 38 -60 57 -24
26 -35 32 -43 24 -9 -9 -9 -17 0 -34 10 -18 6 -29 -27 -77 l-37 -55 -43 46
c-47 49 -53 66 -24 66 35 0 51 12 51 36 0 13 -4 24 -10 24 -5 0 -26 14 -46 32
-30 26 -35 36 -30 60 9 44 -20 49 -56 10 -15 -18 -28 -39 -28 -47 0 -8 -4 -15
-9 -15 -15 0 -51 149 -41 174 10 26 33 38 55 30 17 -7 21 -34 5 -34 -5 0 -10
-4 -10 -10 0 -17 37 -11 44 6 4 9 -1 28 -9 41 -22 33 -70 28 -98 -9 -20 -26
-20 -30 -5 -98 13 -63 10 -88 -7 -60 -13 21 -86 50 -125 50 -33 0 -42 -4 -51
-24 -17 -36 1 -80 33 -84 29 -4 51 18 42 42 -9 22 -24 20 -24 -4 0 -26 -16
-26 -30 1 -14 25 2 49 33 49 31 0 99 -36 131 -69 l27 -28 -36 -6 c-44 -7 -65
-23 -65 -48 0 -14 7 -19 30 -19 25 0 37 -9 66 -51 42 -58 77 -65 82 -16 2 15
7 27 11 27 12 0 130 -102 226 -195 93 -91 91 -104 -9 -44 -53 33 -61 32 -52
-4 10 -43 51 -92 97 -116 45 -24 50 -24 140 -15 71 8 109 7 158 -3 35 -7 66
-15 70 -18 16 -16 -68 -44 -157 -52 -39 -4 -61 -10 -59 -17 7 -22 64 -46 131
-55 82 -12 151 -2 266 39 47 16 92 30 100 29 27 0 -56 -64 -109 -83 -28 -10
-51 -22 -51 -27 0 -22 47 -31 127 -26 72 4 95 10 166 46 45 23 90 41 100 41
17 0 17 -1 0 -26 -9 -15 -33 -33 -51 -41 -55 -23 -26 -38 71 -38 64 0 93 5
131 23 52 24 80 22 96 -7 13 -25 -22 -61 -60 -61 -16 0 -32 -5 -35 -10 -4 -6
10 -10 35 -10 31 0 47 6 67 26 22 22 25 31 20 69 l-6 44 37 -6 c55 -7 62 -11
62 -31 0 -28 24 -44 62 -40 26 2 36 10 48 35 13 27 21 32 58 35 l43 3 -6 -32
c-6 -34 3 -60 31 -87 17 -18 99 -23 89 -6 -3 6 -16 10 -28 10 -31 0 -67 27
-67 51 0 34 44 42 97 19 61 -27 110 -34 178 -25 60 7 70 20 29 35 -26 10 -63
47 -64 64 0 15 62 -3 112 -34 61 -38 131 -53 214 -48 94 6 100 21 23 56 -69
31 -118 66 -108 77 4 3 55 -10 115 -29 135 -42 172 -48 252 -36 63 9 133 37
139 57 2 6 -24 12 -64 16 -75 6 -145 27 -151 45 -8 26 104 39 238 27 99 -9
126 0 178 60 56 63 57 119 2 82 -19 -13 -51 -29 -70 -36 l-35 -12 40 43 c22
23 47 48 56 55 9 6 38 34 65 60 55 53 138 123 147 123 3 0 7 -12 9 -27 2 -20
9 -29 25 -31 17 -3 31 9 58 47 30 41 43 51 65 51 16 0 31 4 34 9 17 26 -30 61
-81 61 -26 0 -26 0 -7 21 29 32 115 79 146 79 33 0 42 -13 34 -46 -7 -27 -33
-28 -28 0 2 9 -4 16 -13 16 -12 0 -15 -8 -13 -27 4 -35 45 -45 65 -17 18 24
16 69 -2 84 -23 19 -100 6 -143 -24 -20 -14 -38 -24 -40 -22 -2 2 1 21 7 43
25 89 3 153 -53 153 -52 0 -78 -71 -28 -78 12 -2 22 1 22 7 0 6 -7 11 -16 11
-19 0 -14 20 9 34 13 8 22 6 39 -12 21 -20 21 -26 11 -74 -6 -29 -18 -69 -26
-88 -13 -31 -15 -33 -23 -15 -15 38 -48 75 -66 75 -14 0 -18 -8 -18 -35 0 -36
-16 -57 -71 -97 -20 -13 -22 -20 -13 -35 6 -10 26 -20 43 -23 l33 -5 -30 -40
c-37 -52 -64 -74 -69 -58 -2 7 -18 29 -34 50 -25 30 -29 44 -24 69 3 18 1 35
-4 39 -6 3 -46 -30 -91 -74 -90 -90 -99 -117 -55 -169 14 -17 25 -40 25 -52 0
-21 -61 -90 -80 -90 -8 0 -20 66 -23 137 -2 50 -12 62 -26 34 -6 -11 -32 -32
-56 -47 -58 -33 -69 -55 -61 -115 6 -42 4 -49 -16 -63 -33 -24 -37 -20 -25 25
8 33 7 47 -6 75 -9 19 -22 34 -29 34 -28 0 -72 -38 -112 -95 -32 -46 -52 -64
-89 -79 -26 -11 -49 -17 -53 -14 -3 4 2 20 10 36 9 17 17 45 18 64 3 31 1 33
-29 32 -50 -3 -113 -38 -192 -110 -40 -36 -76 -63 -79 -60 -5 6 10 25 83 105
39 43 123 91 158 91 10 0 50 7 88 16 109 25 201 91 285 207 107 147 181 214
206 189 16 -16 2 -42 -22 -42 -25 0 -37 -25 -20 -45 41 -50 160 43 160 125 0
35 -29 79 -55 86 -14 3 -34 19 -46 35 -22 32 -59 38 -104 17 -14 -6 -28 -9
-31 -5 -12 12 48 76 90 96 47 23 64 25 86 11 12 -7 12 -12 -4 -29 -18 -19 -18
-22 -2 -46 21 -32 50 -32 81 0 28 27 31 54 11 93 -20 39 -59 56 -120 55 -116
-3 -215 -92 -256 -230 -13 -43 -23 -52 -35 -33 -10 17 -86 32 -127 25 -21 -4
-59 -22 -83 -41 l-45 -34 0 40 c0 96 -82 227 -158 250 -20 7 -56 21 -80 32
-49 23 -114 19 -217 -13 -33 -10 -61 -19 -61 -19 -1 0 -4 14 -7 30 -5 25 -11
30 -35 30 -37 0 -62 -28 -69 -77 l-5 -38 -64 0 c-64 0 -64 0 -64 28 0 30 -16
67 -34 79 -14 10 -50 10 -59 1z m59 -37 c22 -34 14 -68 -18 -84 -24 -11 -34
-10 -75 8 -67 30 -157 38 -182 16 -27 -24 -31 -50 -15 -82 20 -37 11 -54 -26
-54 -49 0 -80 38 -80 100 0 55 20 85 66 96 38 10 143 -1 194 -21 63 -24 96
-29 105 -16 4 7 1 18 -5 26 -12 15 -6 35 10 35 5 0 17 -11 26 -24z m250 12 c4
-6 2 -14 -4 -16 -19 -6 -14 -42 6 -42 9 0 49 11 87 25 48 17 92 25 138 25 63
0 71 -3 98 -29 31 -31 35 -55 19 -110 -11 -40 -35 -60 -71 -61 -37 0 -51 20
-33 44 20 28 17 63 -6 86 -28 28 -95 26 -172 -6 -52 -21 -68 -24 -90 -15 -22
8 -28 17 -28 41 0 55 35 92 56 58z m-1311 -42 c77 -33 165 -162 165 -243 0
-34 -10 -23 -31 31 -30 81 -88 155 -140 181 -53 27 -97 32 -121 13 -21 -17
-30 -59 -16 -75 17 -20 5 -25 -20 -7 -31 22 -29 67 4 93 32 25 107 28 159 7z
m2486 -16 c23 -23 29 -35 24 -52 -8 -27 -34 -50 -48 -41 -5 3 -4 8 3 13 20 13
7 63 -21 79 -76 43 -194 -48 -254 -195 -30 -74 -40 -53 -15 29 22 72 80 146
139 177 22 12 57 19 89 20 46 0 58 -4 83 -30z m-1864 -16 c-65 -65 -59 -252 9
-283 27 -12 42 -7 62 21 29 40 65 4 38 -38 -31 -46 -143 -44 -189 4 -28 30
-47 71 -47 105 0 65 53 163 106 198 41 27 51 24 21 -7z m1115 -4 c47 -39 91
-128 91 -184 0 -49 -24 -100 -57 -122 -34 -21 -125 -28 -156 -12 -27 15 -38
54 -21 71 8 8 19 3 41 -18 26 -25 32 -27 55 -17 34 16 55 68 55 139 0 72 -13
119 -42 150 -31 33 -9 29 34 -7z m-831 -12 c19 -6 44 -18 56 -25 l22 -15 -37
-31 c-53 -46 -67 -64 -104 -136 -32 -63 -32 -66 -36 -227 -4 -152 -3 -165 17
-197 19 -30 73 -66 124 -81 11 -4 17 -15 17 -36 0 -66 48 -112 132 -125 l36
-6 -15 -39 c-14 -35 -20 -40 -47 -40 -57 0 -99 30 -118 85 -20 57 -43 80 -98
96 -53 16 -73 7 -68 -31 3 -17 1 -30 -2 -30 -4 0 -30 27 -58 59 -29 33 -68 69
-89 82 l-36 23 52 16 c63 21 88 43 101 88 19 70 -35 136 -106 130 -30 -2 -42
-9 -54 -31 -14 -27 -14 -29 7 -47 15 -11 31 -16 45 -12 41 10 0 -26 -43 -40
-49 -14 -153 3 -219 36 -81 40 -139 160 -95 196 15 13 45 7 45 -9 0 -5 -10
-11 -22 -14 -21 -6 -21 -7 -3 -27 19 -21 79 -28 90 -10 4 6 24 22 46 36 21 13
39 32 39 41 0 11 12 3 35 -24 28 -33 43 -42 80 -47 85 -13 165 44 165 119 0
61 -48 86 -85 45 -43 -47 -75 -6 -75 97 0 39 5 84 11 100 l12 28 13 -44 c23
-76 74 -112 128 -91 38 14 51 46 32 75 -41 62 13 95 105 63z m613 6 c18 -7 22
-54 5 -71 -19 -19 -2 -59 30 -72 23 -10 35 -9 64 2 39 17 53 37 65 94 8 38 8
38 21 14 22 -40 26 -140 8 -184 -18 -42 -45 -49 -65 -17 -8 13 -23 20 -42 20
-62 0 -62 -101 0 -154 60 -50 160 -42 201 16 18 25 24 28 33 17 22 -29 101
-79 124 -79 31 0 62 17 62 35 0 9 -9 15 -21 15 -12 0 -19 5 -16 13 2 6 14 12
28 12 35 0 48 -44 27 -89 -42 -88 -123 -138 -241 -152 -57 -6 -127 12 -135 35
-3 10 0 12 12 8 26 -10 56 10 56 38 0 34 -26 55 -70 55 -31 0 -44 -6 -69 -35
-63 -72 -28 -156 77 -186 45 -12 53 -24 24 -33 -22 -7 -74 -56 -124 -116 l-38
-45 0 37 c0 44 -10 52 -56 43 -47 -8 -102 -58 -110 -100 -8 -46 -41 -74 -97
-81 -47 -7 -47 -7 -63 31 -18 43 -10 55 39 55 58 0 117 68 117 135 0 16 6 25
15 25 24 0 87 35 110 60 25 28 36 160 24 303 -10 117 -36 173 -117 256 -29 29
-51 55 -50 57 2 2 24 12 48 23 45 21 94 26 124 15z m-291 -29 c103 -27 183
-94 233 -195 26 -51 28 -65 32 -211 4 -130 2 -161 -12 -187 -17 -33 -60 -61
-111 -72 -26 -5 -30 -11 -33 -40 -8 -102 -34 -120 -181 -120 l-103 0 -34 34
c-29 29 -34 41 -34 79 0 44 -1 45 -37 50 -21 4 -54 20 -74 36 -36 30 -36 31
-41 123 -8 133 5 257 34 314 49 99 124 161 228 190 60 16 67 16 133 -1z
m-1165 -107 c30 -18 78 -95 67 -106 -2 -3 -25 16 -50 42 -29 28 -61 50 -86 56
-21 6 -39 14 -39 19 0 29 52 24 108 -11z m2296 26 c26 -10 18 -20 -25 -33 -23
-7 -63 -33 -90 -58 -30 -28 -49 -40 -49 -31 0 27 45 82 85 105 43 24 54 27 79
17z m-2338 -72 c11 -6 37 -29 57 -52 30 -32 37 -48 37 -81 l0 -41 -56 51 c-59
54 -97 70 -123 54 -25 -16 -20 -66 7 -78 26 -11 29 -25 6 -25 -23 0 -82 62
-90 95 -21 83 70 126 162 77z m2426 0 c28 -24 30 -49 9 -96 -18 -41 -60 -76
-91 -76 -18 0 -11 15 13 25 17 8 22 18 22 45 0 31 -3 35 -27 38 -32 4 -106
-43 -132 -82 -23 -36 -36 -32 -36 10 0 59 74 138 144 154 38 9 75 2 98 -18z
m-2054 -22 c36 -22 76 -97 66 -124 -9 -24 -23 -19 -30 9 -10 41 -69 85 -112
85 -109 -1 -158 -119 -93 -222 53 -83 147 -132 279 -143 101 -9 168 10 178 52
8 31 -19 64 -38 45 -19 -19 -30 -14 -26 11 2 17 11 23 35 25 67 7 111 -90 63
-138 -42 -42 -135 -62 -229 -49 -264 37 -446 330 -273 440 57 36 129 40 180 9z
m1726 -13 c47 -36 56 -55 57 -120 2 -70 -35 -140 -108 -207 -117 -107 -280
-143 -414 -91 -33 12 -69 57 -69 86 0 32 52 85 83 85 33 0 55 -26 37 -43 -10
-9 -13 -9 -17 1 -8 20 -33 14 -42 -10 -22 -59 45 -93 166 -84 106 8 180 36
242 92 89 80 103 169 37 239 -27 28 -41 35 -71 35 -49 0 -99 -31 -120 -76 -12
-25 -20 -33 -27 -26 -17 17 0 77 30 104 44 42 64 49 124 45 42 -2 65 -10 92
-30z m-2514 -54 c1 -23 27 -55 62 -78 36 -22 27 -35 -19 -28 -34 6 -36 5 -31
-20 5 -24 3 -25 -29 -20 l-34 6 7 -39 c7 -36 6 -38 -10 -25 -10 8 -24 27 -32
43 -8 15 -29 35 -46 44 -47 24 -14 39 43 20 24 -8 46 -13 50 -10 4 2 5 20 2
40 -3 21 0 45 7 60 16 28 30 31 30 7z m750 2 c16 -9 37 -29 45 -46 15 -28 15
-33 0 -55 -8 -13 -25 -24 -37 -24 -17 0 -19 3 -10 12 27 27 -1 68 -47 68 -54
0 -73 -55 -42 -124 11 -25 17 -46 13 -46 -15 0 -62 85 -62 112 0 56 49 118 93
118 10 0 31 -7 47 -15z m1701 5 c26 -14 51 -66 51 -105 0 -38 -21 -82 -52
-110 l-23 -20 22 42 c38 77 20 143 -40 143 -32 0 -66 -37 -49 -54 27 -27 -3
-36 -32 -9 -28 25 -22 57 17 92 37 32 72 39 106 21z m701 -70 c-1 -45 1 -51
16 -45 44 18 75 23 95 16 20 -8 20 -8 -8 -22 -16 -8 -42 -33 -58 -57 -32 -47
-50 -47 -40 0 6 30 5 31 -25 26 -28 -4 -32 -2 -32 20 0 22 -3 24 -35 18 -45
-9 -47 11 -2 39 18 11 38 35 46 53 13 29 17 31 30 18 9 -10 14 -33 13 -66z
m-2100 -8 c63 5 73 -2 33 -20 -42 -19 -109 -15 -139 9 -37 29 -32 41 11 22 25
-10 57 -14 95 -11z m1123 -2 c-24 -25 -36 -30 -78 -30 -46 0 -87 13 -87 28 0
4 28 6 62 4 41 -2 72 3 88 12 40 23 46 18 15 -14z m-1867 -134 c39 -36 41 -67
7 -108 -15 -17 -25 -42 -25 -60 l0 -30 -57 52 c-90 82 -94 95 -41 160 15 19
28 41 28 49 0 15 10 8 88 -63z m2592 57 c1 -10 14 -34 30 -53 17 -19 30 -43
30 -53 0 -16 -119 -147 -133 -147 -2 0 -2 10 0 23 3 15 -6 36 -26 61 -17 21
-31 48 -31 59 0 18 104 126 123 127 4 0 7 -8 7 -17z m-2404 -213 c40 -25 47
-46 38 -105 -6 -41 -9 -45 -28 -39 -71 22 -78 29 -78 77 -1 34 17 87 28 87 4
0 22 -9 40 -20z m2182 -13 c14 -38 15 -76 4 -94 -6 -9 -82 -43 -97 -43 -8 0
-11 98 -3 113 8 16 65 57 78 57 4 0 11 -15 18 -33z m-2008 -47 c11 -6 34 -31
51 -57 18 -25 41 -55 51 -65 11 -11 18 -21 16 -23 -2 -2 -33 2 -68 11 -72 16
-100 40 -100 84 0 56 14 70 50 50z m1818 -33 c6 -69 -19 -89 -138 -112 l-35
-7 26 28 c14 16 40 50 57 76 18 25 37 49 44 51 29 12 43 1 46 -36z m-2250 -1
c15 -7 63 -21 107 -31 44 -10 84 -21 89 -26 4 -4 -21 -10 -57 -14 -56 -6 -73
-4 -111 14 -24 12 -52 33 -60 46 -19 28 -8 32 32 11z m2682 6 c0 -17 -58 -63
-91 -73 -34 -10 -149 -3 -149 10 0 3 37 15 83 25 45 10 96 24 112 31 36 16 45
17 45 7z m-1934 -51 c32 -21 75 -55 94 -76 l35 -37 -60 7 c-101 12 -146 44
-170 123 -10 35 32 28 101 -17z m1244 24 c0 -23 -25 -67 -52 -92 -20 -19 -109
-43 -157 -43 -23 0 66 87 124 121 56 32 85 37 85 14z m-927 -84 c10 -10 48
-114 43 -118 -9 -9 -115 47 -125 65 -12 22 -15 75 -5 85 7 6 73 -18 87 -32z
m607 16 c0 -7 -5 -29 -11 -50 -9 -33 -17 -41 -66 -62 -30 -14 -59 -25 -63 -25
-11 0 28 101 48 123 16 18 71 37 85 30 4 -2 7 -10 7 -16z m-1123 -46 c29 -4
55 -10 58 -13 6 -5 -82 -39 -150 -57 -52 -14 -150 -14 -200 0 l-40 12 61 13
c64 13 118 36 130 55 4 7 21 9 48 4 22 -4 65 -10 93 -14z m1703 -5 c17 -14 55
-29 94 -37 88 -17 71 -32 -41 -37 -79 -4 -98 -1 -186 28 -54 18 -96 35 -93 37
4 4 147 30 180 32 10 0 31 -10 46 -23z m-1393 -42 c18 -5 6 -14 -65 -50 -69
-35 -102 -45 -159 -50 -79 -7 -96 4 -39 24 19 7 52 31 73 52 l38 40 65 -5 c36
-3 75 -8 87 -11z m483 -22 c23 -75 -4 -126 -46 -91 -24 20 -2 129 26 129 5 0
14 -17 20 -38z m619 4 c18 -19 50 -42 72 -51 59 -27 49 -39 -28 -32 -51 5 -89
17 -149 47 -44 22 -87 40 -94 40 -28 0 0 12 47 20 97 16 116 13 152 -24z
m-900 -33 l36 -15 -54 -24 c-35 -16 -72 -24 -108 -24 l-55 0 27 33 c48 57 75
63 154 30z m659 -21 l34 -37 -48 -3 c-44 -3 -126 18 -148 39 -14 13 75 49 104
43 14 -3 40 -22 58 -42z"/>
<path d="M1880 1865 c-7 -8 -23 -15 -35 -15 -27 0 -49 -24 -41 -45 8 -22 67
-55 97 -55 35 0 49 18 49 65 0 59 -39 87 -70 50z m45 -26 c10 -29 -3 -69 -21
-69 -25 0 -74 30 -74 45 0 10 10 15 30 15 18 0 33 6 36 15 9 21 22 19 29 -6z"/>
<path d="M2056 1864 c-18 -18 -20 -51 -6 -88 7 -20 16 -26 41 -26 40 0 88 29
95 57 8 30 -2 43 -35 43 -16 0 -34 7 -41 15 -16 19 -35 19 -54 -1z m77 -34
c37 0 41 -15 10 -40 -37 -29 -67 -23 -71 13 -2 16 -1 36 3 45 6 16 7 16 19 0
7 -10 25 -18 39 -18z"/>
<path d="M1987 1793 c-2 -5 -7 -20 -10 -34 -4 -14 -18 -31 -32 -37 -33 -15
-32 -28 4 -40 19 -7 31 -19 33 -33 4 -29 28 -38 28 -10 0 12 12 28 28 38 15 9
29 18 31 20 2 1 -10 16 -28 32 -17 16 -31 38 -31 50 0 20 -14 29 -23 14z m30
-79 c8 -20 -17 -36 -34 -22 -10 8 -10 14 -2 24 15 18 28 18 36 -2z"/>
<path d="M1725 1726 c-30 -45 21 -91 55 -51 17 20 5 32 -15 15 -12 -10 -16 -9
-21 5 -12 30 12 41 51 22 20 -9 45 -17 55 -17 25 0 27 20 3 20 -10 0 -27 7
-37 15 -31 23 -73 19 -91 -9z"/>
<path d="M2180 1735 c-14 -8 -34 -14 -44 -15 -16 0 -17 -3 -8 -12 10 -10 19
-9 45 1 59 24 65 24 77 1 11 -21 11 -22 -15 -16 -22 6 -26 4 -23 -11 7 -37 68
-22 68 17 0 22 -31 50 -56 50 -10 -1 -30 -7 -44 -15z"/>
<path d="M1806 1654 c-9 -8 -16 -20 -16 -25 0 -5 -9 -9 -20 -9 -11 0 -27 -12
-37 -26 -16 -25 -16 -28 0 -56 9 -16 17 -40 17 -53 0 -33 28 -58 54 -50 12 4
32 7 46 6 14 0 34 -1 45 -1 23 -1 58 37 49 52 -4 5 2 25 12 43 17 31 17 35 1
59 -10 14 -25 26 -33 26 -9 0 -25 11 -36 25 -22 28 -59 33 -82 9z m62 -21 c2
-9 -7 -13 -28 -13 -28 0 -31 2 -20 15 15 18 41 16 48 -2z m-89 -45 c0 -7 -4
-22 -9 -33 -7 -18 -8 -19 -15 -2 -4 9 -5 24 -1 32 7 18 26 20 25 3z m159 -12
c7 -33 -13 -37 -25 -5 -10 26 -10 30 5 27 9 -2 18 -12 20 -22z m-50 -10 c8
-18 7 -29 -5 -45 -31 -45 -102 -4 -82 47 12 32 71 31 87 -2z m28 -91 c-6 -16
-46 -21 -46 -6 0 5 10 15 23 24 23 15 33 7 23 -18z m-115 15 c26 -14 24 -32
-3 -28 -13 2 -24 11 -26 21 -4 20 2 21 29 7z"/>
<path d="M2108 1649 c-7 -11 -28 -27 -45 -34 -27 -11 -33 -20 -33 -44 0 -16 5
-33 10 -36 6 -3 10 -19 10 -34 0 -39 22 -64 53 -62 51 3 62 3 84 -4 30 -10 67
28 59 60 -4 14 0 27 9 35 31 26 13 90 -26 90 -9 0 -24 11 -33 25 -21 32 -70
34 -88 4z m56 -5 c27 -10 18 -24 -15 -24 -27 0 -30 2 -19 15 14 17 13 17 34 9z
m-79 -66 c-10 -34 -23 -44 -31 -25 -6 18 11 47 28 47 5 0 6 -10 3 -22z m155 7
c14 -16 5 -54 -9 -39 -14 15 -23 54 -13 54 5 0 15 -7 22 -15z m-50 -11 c21
-25 1 -68 -33 -72 -16 -2 -35 2 -43 9 -17 14 -18 51 -2 67 17 17 63 15 78 -4z
m-67 -106 c-8 -14 -41 -8 -47 8 -10 27 4 35 29 17 12 -10 21 -21 18 -25z m97
12 c0 -13 -7 -20 -18 -20 -28 0 -34 11 -14 26 24 19 32 17 32 -6z"/>
<path d="M1960 1443 c-63 -77 -51 -110 37 -107 32 1 61 2 66 3 4 1 7 14 7 29
0 26 -55 112 -71 112 -4 0 -22 -17 -39 -37z m76 -44 c8 -16 14 -30 14 -32 0
-3 -22 -5 -50 -5 -57 0 -63 12 -28 58 24 33 38 28 64 -21z"/>
<path d="M1737 1413 c-33 -32 39 -123 97 -123 18 0 40 6 50 13 17 13 16 14
-12 26 -16 7 -44 30 -61 52 -30 36 -58 49 -74 32z m67 -58 c41 -49 40 -53 -4
-30 -28 15 -50 42 -50 64 0 22 18 10 54 -34z"/>
<path d="M2171 1370 c-27 -27 -57 -50 -67 -50 -18 -1 -18 -1 0 -15 36 -27 83
-19 128 23 35 33 40 43 34 65 -10 41 -40 34 -95 -23z m69 0 c-11 -21 -58 -60
-72 -60 -9 0 38 69 56 82 17 11 27 -2 16 -22z"/>
<path d="M1916 1241 c-3 -5 -16 -7 -27 -4 -19 5 -20 4 -10 -15 6 -12 11 -25
10 -29 -3 -19 2 -25 15 -14 16 14 72 -3 80 -25 7 -18 26 -18 26 -1 0 17 73 41
78 27 7 -19 24 -10 19 10 -3 11 -1 23 4 26 16 9 10 26 -7 20 -9 -4 -23 -1 -30
5 -8 6 -15 8 -15 3 -1 -5 -2 -16 -3 -24 -2 -21 -46 -26 -46 -6 0 21 -16 20
-28 0 -14 -24 -48 -13 -44 14 3 22 -12 30 -22 13z"/>
</g>
</svg>
