<?xml version="1.0" standalone="no"?>
<!DOCTYPE svg PUBLIC "-//W3C//DTD SVG 20010904//EN"
 "http://www.w3.org/TR/2001/REC-SVG-20010904/DTD/svg10.dtd">
<svg version="1.0" xmlns="http://www.w3.org/2000/svg"
 width="460.000000pt" height="381.000000pt" viewBox="0 0 460.000000 381.000000"
 preserveAspectRatio="xMidYMid meet">

<g transform="translate(0.000000,381.000000) scale(0.100000,-0.100000)"
fill="#000000" stroke="none">
<path d="M1698 3746 c-11 -58 24 -237 79 -394 66 -194 266 -595 397 -800 l44
-69 -22 -24 c-16 -18 -46 -29 -112 -43 -49 -10 -96 -25 -105 -32 -8 -8 -30
-17 -47 -20 -18 -4 -35 -11 -38 -15 -3 -5 -13 -9 -22 -9 -9 0 -30 -7 -46 -15
-15 -8 -51 -17 -80 -19 -28 -2 -58 -6 -66 -9 -30 -13 -174 -47 -195 -47 -24 0
-47 -34 -42 -63 4 -23 41 -49 61 -41 12 4 16 0 16 -15 0 -12 -5 -21 -10 -21
-10 0 -29 -39 -34 -68 -1 -8 -8 -17 -16 -22 -16 -10 -22 -57 -9 -66 6 -3 18 1
28 10 10 9 21 16 26 16 5 0 17 8 27 17 14 13 21 14 30 5 23 -23 37 -12 44 33
3 25 15 56 25 70 13 16 18 32 13 49 -5 21 -2 25 28 31 18 4 67 20 108 36 41
16 95 31 120 33 88 8 146 19 234 42 67 18 93 21 108 13 11 -6 37 -8 57 -5 20
4 54 9 75 11 22 2 43 8 48 13 5 5 77 -26 172 -75 315 -160 610 -292 1046 -468
203 -82 297 -114 422 -144 155 -38 339 -71 392 -71 23 0 55 -9 74 -20 17 -11
32 -17 32 -14 0 8 -137 164 -168 193 -15 13 -49 44 -76 68 -40 35 -47 46 -35
54 10 6 7 9 -12 9 -15 0 -69 25 -120 55 -52 31 -120 65 -151 77 -58 21 -69 31
-45 42 6 4 -6 4 -27 1 -33 -4 -84 13 -310 104 -434 174 -606 222 -809 223 -94
1 -107 3 -101 17 4 9 9 30 12 46 6 40 19 55 49 55 54 0 112 56 97 94 -3 8 -1
24 5 35 9 17 8 23 -8 33 -15 9 -17 17 -10 35 15 41 -5 63 -56 63 -35 0 -51 -6
-79 -31 -19 -17 -41 -45 -47 -64 -9 -25 -20 -35 -42 -39 -16 -3 -41 -19 -56
-35 -31 -34 -104 -53 -139 -38 -17 8 -38 5 -86 -11 -35 -12 -76 -22 -91 -22
-24 0 -26 3 -21 25 4 14 26 54 50 89 59 86 70 124 63 210 -13 156 -60 283
-176 466 -57 90 -59 96 -43 114 16 18 16 19 -4 14 -12 -3 -26 -3 -31 1 -21 13
-123 141 -113 141 5 0 10 4 10 10 0 5 -6 7 -13 4 -7 -2 -45 18 -83 47 -38 28
-93 63 -121 77 -35 17 -56 35 -61 52 l-9 25 -5 -29z m100 -76 c114 -57 241
-193 365 -390 l66 -104 -72 -22 c-75 -22 -161 -62 -209 -96 l-27 -19 -15 29
c-29 55 -116 274 -140 351 -13 42 -29 110 -35 151 -6 41 -14 87 -16 103 -6 35
6 35 83 -3z m461 -555 c33 -70 69 -207 77 -288 6 -67 4 -80 -19 -130 -25 -56
-95 -157 -109 -157 -18 0 -140 204 -237 398 -47 94 -47 96 27 139 46 27 196
83 223 83 10 0 25 -18 38 -45z m574 -438 c-1 -26 3 -45 7 -42 13 8 23 -14 14
-33 -4 -9 -6 -28 -5 -42 3 -34 -28 -60 -79 -67 -44 -6 -61 -25 -67 -78 -5 -42
-31 -64 -87 -71 l-49 -7 5 69 c3 38 1 84 -4 103 -8 28 -6 37 12 57 13 12 35
26 51 29 20 5 34 17 45 41 9 20 30 49 47 65 25 25 36 30 71 27 l41 -3 -2 -48z
m-391 -167 c15 -11 30 -38 37 -64 14 -56 14 -52 -5 -70 -19 -20 -34 -21 -34
-3 0 8 -9 22 -20 32 -10 9 -27 38 -36 62 -15 38 -15 46 -3 54 21 13 34 11 61
-11z m116 -43 l3 -57 -30 0 c-25 0 -32 5 -37 28 -4 15 -13 39 -20 54 -14 26
-13 27 19 31 60 8 62 6 65 -56z m-188 6 c7 -21 16 -42 21 -48 6 -6 1 -16 -12
-26 -12 -9 -21 -27 -21 -41 0 -19 -8 -28 -32 -36 -18 -7 -43 -12 -56 -12 l-24
0 22 16 c31 21 31 87 0 108 -12 9 -30 16 -40 16 -10 0 -18 4 -18 10 0 14 35
30 69 30 16 0 33 5 36 10 15 24 44 9 55 -27z m-106 -49 c9 -8 16 -31 16 -50 0
-29 -4 -34 -27 -40 -16 -3 -72 -17 -126 -30 -55 -14 -100 -24 -101 -22 -5 6
-27 100 -24 103 5 4 213 53 230 54 9 0 24 -6 32 -15z m160 -72 c-6 -9 -21 -18
-33 -20 -17 -3 -21 2 -21 22 0 33 29 50 50 30 11 -11 12 -19 4 -32z m130 33
c-1 -5 2 -20 7 -32 7 -19 4 -22 -31 -28 -28 -5 -46 -2 -62 9 -12 9 -17 16 -11
16 6 0 21 11 34 25 23 24 65 31 63 10z m-551 -71 l6 -30 -70 -12 c-89 -15 -84
-16 -97 13 -16 34 -17 32 21 40 17 4 34 11 37 14 3 4 23 11 45 17 44 11 49 7
58 -42z m985 21 c116 -22 272 -68 396 -116 l108 -41 -6 -32 c-13 -63 -75 -129
-173 -181 l-33 -18 -153 66 c-83 36 -255 116 -382 178 -254 124 -249 119 -110
143 107 19 255 19 353 1z m-1148 -76 c0 -12 -279 -99 -317 -99 -47 0 -62 9
-65 39 -4 30 4 33 142 65 189 43 213 46 227 22 7 -12 12 -24 13 -27z m-205
-108 c4 -13 -1 -27 -14 -40 -12 -12 -21 -31 -21 -43 0 -13 -3 -33 -6 -45 -5
-18 -9 -20 -24 -11 -18 12 -25 10 -77 -22 -32 -19 -33 -19 -33 0 0 10 8 21 18
24 11 4 18 18 19 43 1 21 8 40 17 45 9 5 16 17 16 27 0 15 18 23 92 40 4 0 9
-8 13 -18z m1898 6 c16 -11 14 -16 -24 -52 -27 -26 -39 -33 -34 -20 4 11 13
35 19 53 12 36 15 37 39 19z m124 -48 c43 -17 152 -59 243 -93 215 -81 335
-154 475 -291 56 -55 108 -111 115 -124 l12 -24 -73 7 c-94 8 -337 57 -454 91
-82 24 -377 137 -535 205 -36 15 -83 35 -105 44 l-39 17 64 38 c36 22 97 66
135 99 39 33 73 61 77 61 4 1 42 -13 85 -30z"/>
<path d="M2738 2653 c-9 -10 -18 -27 -22 -38 -3 -11 -27 -31 -53 -45 -59 -32
-75 -56 -50 -75 17 -13 18 -15 2 -39 -9 -13 -15 -35 -13 -48 7 -48 61 -25 74
30 10 41 32 72 54 72 10 0 25 6 32 13 8 6 23 17 33 23 26 14 32 45 12 59 -8 6
-17 22 -19 35 -4 31 -29 37 -50 13z m37 -34 c-6 -25 -4 -29 14 -29 40 0 21
-27 -41 -58 -57 -28 -64 -35 -79 -79 -11 -35 -21 -49 -37 -51 -26 -4 -28 12
-7 48 19 33 19 50 -1 50 -32 0 -7 36 44 64 30 15 56 35 59 45 9 25 35 51 45
45 5 -3 6 -19 3 -35z"/>
<path d="M2343 2446 c12 -18 24 -29 25 -24 5 11 -26 58 -38 58 -5 0 1 -15 13
-34z"/>
<path d="M1548 2103 c-9 -10 -21 -29 -28 -42 -12 -23 -11 -23 16 -17 33 8 54
31 54 58 0 23 -22 23 -42 1z m32 -1 c0 -5 -6 -17 -14 -28 -19 -25 -31 -12 -14
15 13 21 28 28 28 13z"/>
<path d="M1011 3191 c-1 -38 -6 -48 -46 -85 -25 -22 -63 -68 -85 -101 -22 -33
-40 -55 -41 -50 0 6 -9 -22 -19 -62 -22 -84 -40 -233 -40 -331 0 -116 30 -342
57 -432 46 -153 86 -214 210 -319 77 -65 81 -69 49 -64 -18 3 -43 0 -55 -7
-19 -10 -26 -8 -43 7 -19 17 -21 17 -42 -10 -16 -20 -25 -24 -33 -16 -6 6 -45
14 -85 16 -57 4 -80 11 -106 30 -40 30 -100 56 -112 48 -6 -4 -10 11 -10 35 0
73 -51 120 -131 120 -53 0 -109 -51 -109 -99 0 -30 -2 -31 -44 -31 -49 0 -87
-24 -111 -70 -40 -78 10 -178 100 -201 36 -9 41 -14 43 -41 5 -62 39 -102 109
-126 30 -10 43 -6 135 33 157 67 267 96 386 102 77 4 102 3 102 -7 0 -13 -164
-179 -202 -204 -20 -13 -34 -14 -93 -5 -90 14 -333 6 -402 -14 -29 -8 -53 -13
-53 -11 0 2 34 22 75 45 42 23 74 43 71 46 -7 7 -61 -24 -186 -105 -63 -41
-131 -81 -150 -88 l-35 -13 30 0 29 -1 -44 -45 c-24 -24 -59 -52 -77 -60 -40
-19 -43 -28 -7 -19 20 5 25 4 20 -5 -14 -22 6 -92 36 -126 l29 -34 -38 -20
c-54 -28 -31 -26 69 8 266 90 645 337 867 565 86 89 100 96 163 80 37 -9 78 3
78 22 0 13 8 15 48 10 144 -18 321 -26 460 -21 97 4 170 2 192 -5 19 -5 83
-13 142 -16 l107 -7 -30 -26 c-33 -29 -36 -43 -14 -65 14 -14 14 -20 0 -61
-17 -52 -19 -81 -6 -89 5 -3 14 1 21 9 9 10 31 15 72 15 49 0 63 -4 77 -22 10
-12 23 -18 29 -14 16 10 15 73 0 79 -10 4 -10 7 0 18 17 19 16 88 -3 95 -8 4
-15 14 -15 24 0 10 -6 21 -12 24 -7 3 19 5 57 4 79 -2 101 6 110 43 14 55 -51
65 -515 82 -69 2 -152 9 -185 15 -105 20 -218 32 -290 32 -128 0 -235 12 -235
26 0 21 -42 44 -78 44 l-34 0 6 83 c4 45 7 226 7 402 1 427 -20 582 -111 835
-23 63 -45 129 -50 145 -7 28 -8 27 -9 -14z m55 -154 c58 -158 92 -334 101
-534 3 -73 3 -133 -1 -133 -4 0 -24 9 -46 20 -55 28 -183 62 -260 69 l-65 6 2
135 c2 165 22 271 65 353 35 66 140 181 160 175 6 -2 26 -43 44 -91z m-86
-612 c52 -14 115 -36 140 -48 l45 -22 3 -170 c2 -93 0 -234 -3 -312 l-7 -142
-104 90 c-116 101 -157 160 -199 287 -22 65 -55 262 -55 324 0 26 64 24 180
-7z m-407 -505 c24 -27 28 -39 25 -76 -3 -42 -2 -44 25 -44 29 0 80 -22 109
-47 13 -12 15 -21 7 -40 -5 -13 -9 -48 -9 -78 0 -51 -1 -53 -36 -70 -23 -11
-47 -15 -68 -11 -31 6 -32 5 -32 -26 0 -18 -3 -44 -8 -57 -6 -16 -5 -21 3 -17
6 4 14 25 17 47 6 36 9 39 38 39 17 0 47 10 66 21 28 17 52 22 132 23 75 1 99
-2 103 -13 3 -8 4 -15 3 -16 -2 -1 -46 -12 -98 -24 -52 -13 -130 -36 -173 -53
-43 -16 -84 -31 -90 -32 -7 -2 -29 -11 -49 -21 -32 -16 -43 -17 -77 -7 -56 17
-91 62 -91 118 0 44 0 44 -36 44 -44 0 -86 29 -108 74 -20 43 -20 69 0 112 21
44 64 67 115 62 37 -3 39 -2 39 27 1 68 48 108 120 101 34 -3 51 -11 73 -36z
m426 -250 c-2 -71 -11 -112 -26 -117 -7 -3 -15 7 -19 21 -6 24 -8 25 -74 19
-37 -3 -84 -3 -104 1 -34 7 -36 9 -36 46 0 21 5 51 10 66 10 26 12 27 78 22
37 -3 78 -11 90 -19 21 -13 25 -12 44 14 27 37 38 21 37 -53z m176 58 c22 0
53 -4 69 -10 25 -10 28 -15 22 -47 -3 -20 -6 -57 -6 -83 0 -42 -3 -48 -25 -54
-14 -3 -36 -3 -50 0 -21 5 -23 10 -16 30 13 34 -8 70 -43 74 -39 5 -69 -24
-62 -60 5 -26 4 -28 -30 -28 -35 0 -36 1 -30 31 3 17 6 55 6 84 0 49 2 54 28
64 15 5 43 7 62 3 19 -3 53 -5 75 -4z m403 -74 l92 -6 0 -49 c0 -26 -4 -51
-10 -54 -9 -6 -215 8 -337 22 -52 6 -53 6 -53 39 0 18 3 40 6 49 7 18 -3 18
302 -1z m212 -48 c0 -58 -7 -66 -61 -66 l-50 0 3 50 3 50 53 0 52 0 0 -34z
m-642 12 c26 -26 7 -78 -28 -78 -9 0 -25 9 -35 20 -37 41 24 97 63 58z m812
-9 c19 1 141 -4 270 -10 245 -12 277 -19 263 -57 -10 -27 -34 -35 -93 -33
-141 6 -327 19 -350 25 -14 3 -76 9 -137 13 l-113 6 0 35 0 35 63 -8 c34 -4
78 -7 97 -6z m367 -124 c7 -8 13 -21 13 -29 0 -9 7 -16 15 -16 18 0 19 -31 3
-78 -10 -28 -10 -36 0 -39 12 -5 18 -53 5 -53 -3 0 -14 6 -22 14 -22 20 -135
24 -157 5 -18 -15 -18 -15 8 72 9 30 8 41 -5 60 -16 21 -15 24 16 55 28 28 37
32 71 27 22 -3 46 -11 53 -18z m-1492 -182 c15 -9 15 -11 0 -23 -13 -11 -23
-9 -65 10 -28 13 -53 21 -56 18 -3 -3 10 -11 30 -18 65 -21 63 -32 -22 -92
-113 -82 -205 -139 -312 -196 -108 -58 -242 -106 -270 -97 -22 7 -54 57 -64
98 -9 39 15 79 95 158 128 126 237 160 491 154 86 -2 164 -7 173 -12z"/>
<path d="M446 1875 c-18 -19 -21 -41 -6 -50 6 -3 10 -28 10 -56 0 -47 -1 -49
-29 -49 -16 0 -45 7 -64 15 -41 17 -80 8 -91 -21 -14 -36 55 -75 95 -53 12 6
36 8 55 4 32 -5 34 -8 34 -45 0 -21 -4 -42 -10 -45 -12 -7 -13 -55 -2 -71 4
-6 17 -16 30 -23 42 -22 86 25 63 68 -6 11 -11 38 -11 60 0 40 1 41 35 41 19
0 35 -4 35 -8 0 -5 12 -14 26 -21 54 -24 99 42 58 84 -13 13 -29 15 -85 9
l-69 -7 0 40 c0 24 6 46 15 53 20 16 19 33 -2 58 -25 30 -66 37 -87 17z m68
-16 c29 -23 34 -47 11 -55 -10 -4 -15 -21 -15 -54 l0 -48 46 -4 c25 -2 48 0
50 4 8 13 51 9 64 -6 6 -8 10 -25 8 -38 -2 -18 -10 -24 -36 -26 -22 -2 -34 2
-38 12 -4 11 -19 16 -49 16 l-43 0 -4 -45 c-2 -25 1 -50 5 -54 5 -5 7 -21 5
-37 -2 -23 -9 -30 -30 -32 -35 -4 -59 37 -40 69 7 10 12 39 12 63 0 43 -1 45
-35 52 -19 3 -47 2 -62 -4 -47 -16 -105 16 -81 45 12 15 74 17 83 3 3 -5 26
-10 50 -10 l44 0 3 48 c2 28 -3 56 -11 71 -13 21 -13 25 4 37 24 18 27 18 59
-7z"/>
<path d="M2240 1445 c-7 -9 -13 -32 -14 -52 -1 -33 2 -37 33 -45 44 -12 61 -4
61 27 0 63 -50 106 -80 70z m49 -8 c6 -8 14 -28 17 -45 6 -32 6 -32 -36 -32
-42 0 -42 0 -36 32 6 32 22 58 36 58 4 0 13 -6 19 -13z"/>
<path d="M3126 1501 c-10 -11 -43 -31 -74 -46 -108 -51 -201 -152 -287 -310
-65 -120 -107 -186 -195 -310 -47 -66 -94 -139 -104 -162 l-19 -42 -27 42
c-46 74 -165 182 -243 223 -234 121 -328 191 -379 281 -30 54 -44 68 -34 36 3
-10 6 -49 7 -88 2 -61 7 -78 40 -136 82 -142 303 -293 525 -360 54 -16 100
-31 103 -34 3 -3 -5 -15 -17 -27 -21 -21 -23 -21 -56 -6 -19 9 -42 15 -52 12
-13 -3 -55 21 -123 71 -58 41 -109 74 -115 72 -15 -5 -75 37 -262 184 -88 69
-169 129 -181 133 -15 5 -25 0 -37 -19 -16 -24 -16 -25 22 -52 38 -28 51 -48
32 -48 -13 0 -41 -41 -33 -49 4 -3 -2 -12 -12 -20 -21 -15 -14 -49 9 -40 17 7
76 -34 76 -53 0 -20 17 -16 34 9 10 13 12 26 6 33 -10 11 1 37 16 36 5 0 8 7
8 14 -1 9 3 12 10 8 34 -20 182 -128 251 -184 44 -35 115 -89 158 -119 42 -29
77 -58 77 -63 0 -26 73 -97 110 -108 22 -7 40 -18 40 -26 0 -7 11 -13 26 -13
39 0 113 -48 140 -91 13 -21 33 -43 44 -49 17 -9 19 -14 10 -26 -16 -18 -5
-75 21 -108 35 -44 139 -45 139 0 0 13 4 12 26 -5 15 -12 38 -21 51 -21 27 0
73 41 73 65 0 26 -26 79 -48 99 -15 13 -20 26 -16 46 17 81 -104 168 -153 111
-15 -18 -19 -19 -46 -5 -16 9 -38 14 -48 11 -23 -6 -96 45 -111 78 -6 14 -16
25 -23 25 -12 0 -55 53 -55 68 0 16 36 42 57 42 82 0 242 89 340 188 65 66
183 223 235 311 72 124 115 306 88 377 -7 17 -7 32 0 45 14 25 -2 25 -24 0z
m14 -56 c19 -49 -16 -217 -65 -316 l-28 -56 -106 -6 c-58 -4 -131 -13 -161
-21 -30 -8 -56 -13 -58 -11 -5 5 98 187 134 237 55 74 145 152 205 175 69 28
68 28 79 -2z m-1300 -349 c14 -16 65 -56 113 -87 86 -56 90 -60 144 -156 31
-54 64 -110 75 -125 11 -16 17 -28 14 -28 -4 0 -50 26 -103 58 -185 109 -289
235 -299 361 -5 56 -5 56 13 31 10 -13 29 -38 43 -54z m1190 -43 c0 -5 -7 -16
-14 -26 -14 -18 -16 -18 -64 -1 -28 10 -48 22 -46 26 7 10 124 11 124 1z m-77
-40 c20 -9 37 -18 37 -21 0 -3 -25 -39 -57 -80 -117 -157 -250 -264 -372 -302
-81 -26 -101 -26 -101 0 0 38 28 89 123 223 52 72 99 142 105 154 11 19 69 45
127 55 27 5 91 -8 138 -29z m-1148 -119 c188 -148 189 -149 181 -163 -8 -12
-66 25 -235 148 -142 104 -155 116 -147 129 15 25 46 8 201 -114z m318 20 c82
-41 170 -108 230 -174 47 -52 91 -119 84 -127 -8 -8 -206 63 -224 81 -22 21
-157 246 -147 246 2 0 28 -12 57 -26z m-408 -20 c29 -19 32 -39 9 -61 -8 -9
-13 -22 -9 -31 3 -8 3 -23 0 -32 -5 -15 -11 -12 -39 16 -19 19 -44 34 -57 34
-24 1 -24 1 -4 16 11 8 18 23 17 32 -4 17 23 42 45 42 8 0 25 -7 38 -16z m335
-198 c0 -23 -13 -26 -41 -9 -22 13 -26 20 -18 35 9 17 11 17 34 2 14 -9 25
-22 25 -28z m168 -85 c39 -29 72 -56 72 -59 -1 -11 -26 -42 -35 -42 -13 0
-205 143 -205 153 0 6 7 19 17 29 16 17 17 17 47 -5 17 -13 64 -47 104 -76z
m145 -57 c3 -4 -1 -17 -9 -29 -31 -48 30 -90 70 -49 36 36 50 -26 15 -70 -31
-39 -81 -28 -137 29 l-43 44 27 41 c25 37 58 52 77 34z m56 -33 c13 -24 -8
-55 -35 -49 -20 3 -30 29 -20 54 8 20 43 17 55 -5z m76 -72 c8 -12 -40 -88
-61 -96 -27 -10 -25 3 6 37 17 19 30 42 30 52 0 20 15 24 25 7z m124 -92 c15
4 33 -2 51 -16 35 -25 40 -26 40 -6 0 9 11 21 25 27 57 26 142 -61 117 -118
-10 -20 -6 -28 23 -57 39 -39 47 -87 18 -119 -21 -23 -44 -23 -76 2 -32 26
-40 25 -52 -3 -16 -36 -68 -35 -105 1 -38 38 -47 75 -26 107 14 21 14 25 2 25
-15 0 -76 64 -76 80 0 5 -25 23 -55 40 l-55 31 27 34 27 34 46 -34 c33 -24 53
-32 69 -28z"/>
<path d="M1656 859 c-14 -21 -14 -24 5 -37 25 -17 52 0 47 32 -4 29 -33 32
-52 5z m38 -22 c-8 -21 -23 -22 -31 -1 -7 18 17 38 30 25 4 -4 5 -15 1 -24z"/>
<path d="M2757 323 c-3 -5 -8 -23 -12 -40 -3 -18 -10 -35 -14 -38 -5 -2 -26
11 -47 30 -43 39 -67 41 -72 9 -2 -17 9 -29 48 -53 l52 -32 -26 -34 c-28 -36
-26 -59 5 -76 24 -12 39 -4 39 21 0 28 11 50 24 50 6 0 27 -13 46 -30 38 -32
50 -36 67 -19 19 19 4 38 -48 65 -27 13 -49 29 -49 36 0 6 11 26 25 44 l25 33
-22 20 c-23 22 -34 26 -41 14z m40 -29 c3 -8 -4 -25 -16 -38 -34 -37 -27 -59
29 -90 28 -15 50 -34 50 -42 0 -22 -13 -17 -64 23 -46 36 -49 37 -62 18 -8
-10 -14 -29 -14 -42 0 -14 -6 -23 -15 -23 -26 0 -28 27 -6 63 12 19 21 37 21
40 0 3 -22 19 -50 36 -27 17 -50 38 -50 46 0 25 22 17 61 -21 44 -43 64 -40
73 10 7 37 32 49 43 20z"/>
</g>
</svg>
