<?xml version="1.0" standalone="no"?>
<!DOCTYPE svg PUBLIC "-//W3C//DTD SVG 20010904//EN"
 "http://www.w3.org/TR/2001/REC-SVG-20010904/DTD/svg10.dtd">
<svg version="1.0" xmlns="http://www.w3.org/2000/svg"
 width="1689.000000pt" height="1400.000000pt" viewBox="0 0 1689.000000 1400.000000"
 preserveAspectRatio="xMidYMid meet">

<g transform="translate(0.000000,1400.000000) scale(0.100000,-0.100000)"
fill="#000000" stroke="none">
<path d="M6247 13853 c-14 -24 -29 -209 -23 -298 9 -144 77 -515 125 -685 11
-36 34 -119 51 -185 54 -201 148 -474 255 -735 26 -63 62 -151 80 -195 157
-388 355 -800 597 -1245 300 -552 497 -900 593 -1050 37 -58 83 -131 104 -163
20 -32 52 -84 72 -115 l37 -56 -23 -18 c-26 -20 -65 -94 -65 -124 0 -17 -36
-27 -323 -93 -177 -41 -348 -80 -381 -87 -60 -13 -119 -56 -132 -96 -4 -12
-15 -18 -37 -18 -18 0 -67 -7 -110 -15 -43 -8 -81 -15 -83 -15 -3 0 -19 -15
-37 -33 -30 -29 -42 -34 -128 -45 -105 -14 -140 -28 -153 -58 -9 -19 -21 -22
-109 -28 -54 -4 -125 -15 -158 -26 -51 -15 -69 -17 -124 -7 -61 10 -65 10
-102 -16 -22 -15 -85 -38 -154 -56 -64 -17 -165 -43 -225 -60 -60 -16 -127
-32 -149 -36 -22 -4 -53 -13 -70 -20 -52 -23 -63 -24 -114 -16 -63 10 -103 -6
-121 -48 -7 -17 -17 -31 -22 -31 -5 0 -20 -11 -34 -25 l-25 -25 26 -49 c13
-28 22 -57 19 -65 -14 -37 5 -64 56 -81 27 -9 50 -21 50 -26 0 -5 11 -16 25
-25 22 -14 31 -15 72 -4 44 13 47 12 65 -9 10 -13 18 -39 18 -57 0 -31 -5 -36
-47 -57 -52 -24 -73 -55 -92 -141 -7 -27 -21 -61 -31 -77 l-20 -27 24 -29 25
-30 -54 -17 c-29 -9 -64 -25 -77 -36 -23 -19 -23 -19 -5 -51 17 -30 17 -32 -4
-65 -18 -30 -19 -39 -9 -64 19 -47 32 -53 81 -36 24 8 49 23 54 32 24 41 53
61 99 68 39 6 56 16 91 52 29 30 52 44 69 44 14 0 29 0 34 0 4 0 10 -13 14
-28 11 -41 42 -66 72 -58 32 8 66 64 66 108 0 20 7 41 15 48 9 8 14 32 15 73
1 115 25 189 70 212 32 17 90 83 90 103 0 8 -16 43 -36 79 -20 35 -33 68 -28
72 5 4 55 20 110 35 56 14 128 35 159 46 32 11 67 20 78 20 10 0 45 13 76 29
31 16 98 41 150 56 52 14 117 38 145 53 40 20 63 25 107 23 35 -1 78 5 115 17
41 14 74 18 111 15 39 -4 62 -1 95 15 43 20 102 27 208 23 30 -1 89 8 130 19
239 64 653 170 664 170 8 0 33 -11 57 -24 53 -30 154 -48 218 -39 52 7 151 47
151 61 0 5 23 14 52 20 46 9 55 8 79 -10 43 -32 112 -12 220 64 12 8 36 -3
118 -56 56 -36 103 -66 104 -66 2 0 59 -30 128 -68 68 -37 164 -85 214 -107
49 -22 281 -135 515 -250 703 -348 994 -485 1350 -638 135 -58 277 -119 315
-137 39 -17 90 -41 114 -51 24 -11 64 -28 90 -39 25 -10 71 -29 101 -43 30
-15 78 -35 105 -45 155 -60 474 -191 635 -262 247 -109 267 -117 525 -210 44
-16 168 -66 275 -111 608 -254 869 -345 1305 -454 356 -88 527 -126 745 -165
492 -87 570 -99 685 -105 249 -14 272 -20 404 -107 68 -44 101 -54 101 -30 0
5 -42 51 -92 103 -51 52 -114 121 -140 154 -25 33 -55 69 -65 80 -10 11 -47
56 -83 100 -132 164 -550 563 -682 652 -21 14 -38 29 -38 34 0 5 18 18 40 29
22 11 40 27 40 35 0 12 -18 15 -99 15 -97 0 -100 1 -152 36 -48 33 -319 201
-394 244 -16 9 -70 40 -120 68 -49 28 -157 76 -240 106 -82 31 -183 68 -224
84 l-73 28 48 42 c27 22 45 44 41 48 -4 4 -48 0 -97 -10 -49 -10 -106 -19
-127 -19 -40 -1 -214 59 -478 165 -145 58 -178 72 -248 102 -17 8 -147 60
-287 116 -140 56 -381 154 -535 217 -530 218 -855 328 -1385 467 -200 52 -549
116 -750 137 -179 18 -506 16 -620 -4 -52 -9 -100 -17 -107 -17 -7 0 6 30 29
66 39 62 42 72 48 163 8 106 27 156 78 205 26 24 36 28 74 23 55 -6 166 16
220 44 55 28 127 104 157 165 30 59 30 116 2 155 -19 25 -19 28 -4 41 21 17
63 107 63 134 0 31 -43 65 -90 71 -33 5 -40 9 -35 22 4 9 18 52 31 95 27 90
22 133 -22 185 -40 48 -98 65 -207 59 -81 -4 -102 -9 -155 -38 -130 -69 -284
-259 -321 -397 -11 -39 -14 -42 -61 -52 -67 -14 -172 -63 -222 -102 -22 -18
-58 -55 -79 -83 -22 -28 -43 -56 -48 -62 -5 -6 -47 -17 -93 -24 -97 -15 -248
-46 -255 -53 -2 -3 -20 5 -39 18 -75 51 -185 52 -283 1 -25 -13 -69 -27 -98
-30 -57 -5 -127 -37 -144 -65 -11 -17 -16 -17 -81 -4 -61 13 -76 13 -113 0
-42 -13 -44 -13 -49 8 -6 25 7 114 25 165 7 19 29 55 49 80 109 135 190 260
255 395 63 129 90 214 107 330 11 77 10 100 -11 238 -26 169 -66 386 -86 462
-58 223 -127 427 -186 555 -60 132 -240 444 -394 685 -18 28 -49 77 -70 110
-21 33 -60 92 -87 132 -26 40 -48 79 -48 87 0 9 12 23 28 33 37 24 82 69 82
82 0 14 -16 14 -78 0 -85 -20 -115 -8 -175 70 -101 132 -206 257 -290 346
l-85 90 38 19 c39 19 55 40 45 56 -3 5 -29 6 -59 3 -75 -8 -116 9 -199 81
-200 174 -336 264 -542 360 -196 92 -204 100 -229 222 -10 53 -27 77 -39 57z
m338 -360 c155 -78 319 -195 480 -342 72 -67 265 -260 305 -306 146 -167 272
-336 408 -545 52 -80 115 -176 140 -215 26 -38 95 -151 154 -250 89 -148 105
-181 91 -183 -119 -22 -391 -104 -535 -162 -201 -81 -429 -208 -532 -296 -22
-19 -43 -34 -46 -34 -4 0 -23 35 -43 78 -19 42 -49 106 -65 142 -40 88 -142
325 -186 435 -20 50 -41 99 -46 110 -20 44 -125 315 -152 395 -102 296 -171
558 -203 765 -40 265 -65 450 -65 492 l0 32 103 -35 c56 -20 143 -56 192 -81z
m1657 -1951 c119 -219 228 -547 292 -877 83 -430 76 -560 -44 -810 -60 -124
-180 -303 -299 -445 -74 -88 -79 -93 -95 -87 -19 7 -111 119 -155 187 -33 53
-46 74 -138 235 -34 59 -284 510 -386 695 -16 30 -40 73 -52 95 -76 136 -295
562 -295 574 0 16 121 108 223 168 220 131 502 243 782 312 126 31 124 31 167
-47z m2118 -1515 c41 -14 80 -68 80 -111 0 -17 -12 -67 -26 -110 -14 -43 -24
-90 -22 -105 3 -24 6 -26 44 -23 28 2 47 -2 63 -15 22 -18 22 -19 6 -61 -10
-23 -30 -53 -46 -66 -28 -24 -38 -46 -21 -46 13 0 42 -67 42 -96 0 -51 -63
-142 -130 -189 -51 -35 -174 -66 -212 -53 -95 33 -211 -113 -209 -263 1 -65
-13 -106 -56 -174 -45 -68 -62 -76 -237 -106 l-161 -29 -25 25 c-22 23 -25 34
-27 118 -2 55 3 122 13 167 30 140 19 301 -27 391 -17 35 -17 37 3 70 59 99
174 173 316 203 l54 11 22 70 c35 112 149 266 249 340 79 58 219 82 307 52z
m-1425 -775 c47 -24 119 -117 144 -186 54 -145 63 -303 20 -342 -48 -43 -129
-62 -129 -30 0 6 -11 35 -25 63 -17 38 -33 57 -58 69 -26 13 -43 34 -75 98
-43 84 -95 224 -107 287 -6 34 -5 36 32 52 67 29 129 25 198 -11z m449 -22
c24 -70 32 -241 14 -325 -11 -51 -16 -59 -33 -56 -11 2 -50 4 -86 5 -53 1 -71
-3 -88 -18 -21 -19 -21 -19 -21 15 -1 49 -36 202 -59 255 -11 25 -34 63 -51
84 -17 21 -27 41 -23 43 9 5 139 32 223 46 96 16 103 13 124 -49z m-694 -119
c19 -58 53 -143 76 -188 l42 -81 -45 -17 c-97 -37 -147 -147 -108 -237 6 -15
2 -18 -28 -18 -23 0 -46 -9 -65 -25 -17 -14 -49 -32 -72 -40 -51 -18 -171 -18
-219 -1 l-35 12 50 14 c68 19 90 35 115 87 48 98 4 285 -79 337 -51 32 -133
50 -188 41 -26 -3 -44 -3 -42 2 2 4 10 21 18 36 8 16 41 48 73 73 52 39 65 44
111 44 28 0 66 -4 84 -9 35 -10 51 -5 111 38 37 27 79 39 131 38 l35 0 35
-106z m-408 -184 c45 -25 64 -51 84 -115 20 -66 18 -136 -6 -182 -16 -31 -29
-41 -72 -56 -29 -10 -75 -19 -103 -19 -44 -1 -433 -96 -650 -160 -44 -12 -92
-25 -107 -28 l-28 -4 0 71 c0 89 -21 188 -54 259 -30 63 -31 67 -10 67 8 0 52
9 97 20 45 10 211 49 369 85 158 36 300 73 315 81 36 19 114 11 165 -19z
m1051 -120 l48 -12 2 -85 c2 -63 7 -92 21 -112 21 -33 33 -27 -129 -61 l-120
-26 -70 44 c-38 24 -79 51 -90 59 l-20 15 20 1 c58 1 148 66 204 147 13 19 32
33 49 36 15 2 29 5 32 5 3 1 27 -4 53 -11z m-448 -31 c22 -22 45 -81 45 -118
0 -36 -143 -124 -185 -114 -32 8 -69 87 -61 129 20 100 142 162 201 103z
m-1571 -116 c28 -66 46 -156 46 -237 0 -48 -2 -53 -22 -53 -83 0 -175 -15
-202 -31 -35 -21 -64 -24 -98 -9 -18 9 -37 6 -91 -15 -74 -27 -124 -32 -149
-12 -9 6 -23 37 -32 68 -8 30 -27 73 -41 93 -32 48 -23 61 48 69 28 3 82 11
119 17 58 10 68 15 78 40 13 30 10 30 159 52 74 10 88 16 115 44 17 18 34 33
37 33 4 1 18 -26 33 -59z m3281 -31 c517 -44 1345 -270 2017 -549 92 -39 172
-70 177 -70 15 0 18 -82 5 -146 -21 -102 -70 -186 -199 -342 -48 -59 -88 -92
-202 -168 -78 -51 -144 -94 -147 -94 -3 0 -48 -25 -101 -55 -52 -30 -99 -55
-104 -55 -8 0 -140 57 -426 182 -87 38 -200 88 -370 161 -233 100 -629 289
-1210 577 -220 109 -420 207 -445 218 -198 89 -374 182 -363 192 11 11 449 96
618 120 168 24 276 38 330 44 54 5 274 -3 420 -15z m-3887 -227 c11 -26 23
-64 27 -84 7 -35 5 -37 -32 -56 -21 -11 -80 -31 -131 -46 -51 -14 -114 -37
-140 -50 -26 -13 -83 -34 -127 -46 -44 -12 -109 -31 -145 -41 -36 -11 -84 -23
-106 -29 -23 -5 -63 -20 -90 -34 -114 -56 -311 -102 -389 -91 -23 4 -58 2 -79
-3 -33 -10 -38 -8 -52 13 -9 13 -34 30 -57 38 -36 12 -42 17 -39 40 2 14 -6
44 -18 67 -21 40 -21 42 -3 56 10 7 21 14 24 14 4 0 14 16 23 35 l17 35 77 -3
c53 -1 90 3 117 14 22 9 96 31 165 48 332 82 421 108 444 130 23 22 27 22 82
11 50 -11 67 -9 138 9 95 23 246 40 262 28 7 -4 21 -29 32 -55z m6236 -458
c50 -20 95 -40 101 -45 15 -14 -202 -218 -354 -333 -8 -6 3 12 24 39 80 105
145 278 129 348 -3 15 -2 27 1 27 4 0 49 -16 99 -36z m-6970 -6 c8 -18 24 -48
36 -66 l22 -32 -43 -41 c-24 -22 -53 -48 -64 -59 -31 -28 -57 -113 -59 -191
-1 -38 -8 -75 -14 -81 -7 -7 -12 -27 -12 -45 0 -74 -51 -115 -58 -45 -5 45
-29 56 -96 42 -40 -8 -62 -20 -90 -49 -25 -25 -51 -42 -74 -46 -48 -9 -89 -31
-102 -54 -16 -31 -40 -51 -61 -51 -23 0 -25 27 -4 54 18 24 19 68 3 84 -15 15
-13 17 62 44 73 26 84 44 52 88 -18 23 -19 29 -6 41 7 8 22 48 32 89 18 74 19
75 65 98 57 27 70 50 65 112 l-3 48 70 11 c74 13 220 55 245 71 20 13 18 14
34 -22z m7381 -160 c510 -207 672 -270 885 -346 124 -45 252 -92 285 -105 33
-14 114 -44 180 -67 127 -45 240 -98 340 -160 33 -20 94 -57 135 -80 68 -39
124 -74 300 -188 60 -39 229 -163 251 -184 8 -7 28 -24 44 -36 126 -97 475
-443 591 -587 106 -131 154 -195 154 -208 0 -24 -434 8 -593 42 -23 5 -60 12
-82 15 -71 11 -417 75 -540 101 -119 24 -205 45 -505 123 -85 22 -173 43 -194
47 -116 20 -580 190 -996 363 -146 61 -350 142 -455 181 -176 64 -316 122
-490 201 -54 25 -354 148 -560 230 l-20 8 20 8 c11 4 74 39 140 77 281 165
570 382 750 563 75 76 105 99 120 96 11 -3 119 -45 240 -94z"/>
<path d="M10114 9796 c-33 -15 -97 -84 -115 -125 -6 -14 -21 -51 -32 -81 l-22
-55 -156 -80 c-173 -88 -180 -93 -221 -149 -38 -53 -38 -98 1 -137 16 -16 38
-29 49 -29 11 0 25 -6 31 -14 10 -11 6 -21 -18 -49 -46 -52 -94 -163 -99 -227
-3 -47 -1 -58 18 -75 29 -26 135 -25 179 1 34 20 81 108 107 199 31 111 56
173 77 193 27 24 81 52 102 52 36 0 130 42 154 68 14 16 47 37 72 46 53 19
104 69 112 110 7 41 -10 94 -37 111 -12 8 -38 17 -57 19 -18 3 -35 5 -36 5 -1
1 4 20 12 42 28 79 11 145 -45 174 -35 18 -36 18 -76 1z m76 -56 c25 -25 25
-45 -1 -120 -28 -81 -23 -90 45 -90 44 0 57 -4 66 -19 29 -56 -6 -116 -83
-141 -21 -6 -58 -29 -83 -51 -25 -21 -57 -42 -72 -45 -170 -37 -216 -82 -257
-249 -21 -88 -70 -197 -95 -213 -22 -13 -111 -19 -128 -8 -32 20 11 156 72
231 48 58 55 90 25 121 -12 13 -30 24 -39 24 -27 0 -60 30 -60 56 0 48 61 96
226 179 86 44 164 90 174 103 11 13 26 47 36 75 30 92 91 167 135 167 11 0 28
-9 39 -20z"/>
<path d="M8525 9100 c-4 -6 13 -29 38 -50 32 -29 52 -58 72 -107 37 -92 40
-98 56 -98 40 0 -18 154 -81 218 -46 46 -72 57 -85 37z"/>
<path d="M5739 7782 c-56 -36 -157 -185 -174 -254 -6 -25 -4 -28 18 -28 25 0
187 36 191 42 15 23 56 172 56 200 0 56 -41 74 -91 40z m47 -61 c-3 -21 -15
-64 -27 -94 -20 -53 -21 -54 -76 -66 -30 -7 -57 -11 -59 -8 -9 8 64 123 105
165 52 53 65 54 57 3z"/>
<path d="M3695 11830 c-4 -17 -4 -77 0 -134 6 -93 5 -106 -14 -142 -25 -47
-53 -79 -106 -119 -66 -49 -185 -166 -240 -235 -56 -71 -180 -267 -216 -342
-23 -47 -39 -61 -39 -34 0 7 -7 19 -16 27 -24 20 -34 -5 -34 -86 0 -41 -9
-100 -20 -140 -12 -39 -27 -92 -35 -120 -22 -76 -63 -326 -75 -455 -6 -63 -15
-149 -20 -190 -17 -136 -23 -537 -11 -720 6 -96 25 -282 41 -415 16 -132 38
-321 49 -420 22 -193 34 -246 130 -565 73 -239 154 -416 277 -600 130 -195
155 -219 682 -660 56 -46 100 -85 99 -86 -1 -1 -33 5 -72 13 -106 22 -213 13
-288 -26 -33 -17 -66 -31 -74 -31 -7 0 -22 20 -32 44 -20 46 -35 56 -81 56
-32 0 -81 -43 -106 -94 -9 -17 -26 -41 -37 -54 l-21 -22 -20 25 c-20 25 -34
31 -161 60 -45 11 -330 32 -460 35 -5 0 -28 16 -50 36 -167 151 -367 249 -468
230 l-32 -6 0 113 c0 132 -11 174 -68 259 -136 203 -409 272 -616 156 -134
-75 -221 -223 -221 -373 l0 -65 -27 7 c-16 5 -76 8 -134 8 -103 0 -108 -1
-182 -39 -371 -188 -343 -750 46 -935 72 -34 158 -52 216 -45 l41 5 0 -84 c0
-145 40 -251 132 -352 93 -102 216 -163 338 -168 32 -1 58 -3 57 -4 -1 0 -47
-25 -102 -54 -155 -81 -421 -237 -500 -293 -16 -12 -64 -42 -105 -67 -41 -25
-105 -68 -141 -96 -82 -62 -263 -172 -360 -218 -47 -22 -97 -37 -137 -41 -64
-7 -72 -13 -48 -33 17 -14 118 -18 162 -7 25 6 3 -20 -130 -157 -172 -175
-222 -215 -313 -249 -67 -25 -85 -37 -77 -50 8 -13 109 -1 144 17 40 21 43 19
24 -17 -42 -81 -23 -231 48 -375 32 -67 59 -105 113 -159 83 -83 91 -67 -77
-151 -66 -32 -108 -59 -108 -68 0 -8 6 -15 13 -15 34 0 662 217 732 253 104
53 207 103 330 162 554 265 1265 726 1845 1194 345 278 719 638 882 847 43 54
43 54 98 54 37 0 66 6 88 20 17 11 32 16 32 11 0 -4 30 -23 67 -42 59 -30 75
-34 138 -32 56 1 86 8 137 31 68 31 88 52 88 96 0 14 4 27 10 31 5 3 65 -3
132 -14 68 -11 245 -30 393 -41 149 -11 387 -32 530 -45 198 -19 274 -23 318
-15 31 5 62 12 67 15 6 3 55 -1 110 -10 128 -22 239 -17 300 12 44 21 53 22
318 17 207 -3 282 -8 308 -19 55 -23 138 -33 308 -39 148 -5 161 -7 184 -28
23 -23 26 -23 269 -20 222 2 245 1 239 -14 -3 -8 -6 -20 -6 -25 0 -5 -9 -9
-21 -9 -23 0 -60 -18 -71 -34 -4 -6 -8 -21 -8 -33 0 -17 -9 -25 -40 -34 -64
-19 -74 -37 -65 -115 7 -67 28 -104 60 -104 8 0 19 -16 24 -37 14 -51 15 -50
-14 -87 -38 -50 -60 -128 -75 -260 -13 -119 -13 -120 10 -138 43 -35 81 -17
102 47 l13 40 225 -3 225 -2 20 -25 c11 -13 31 -38 44 -55 49 -64 92 -74 138
-30 20 18 22 30 22 125 0 93 -2 106 -19 115 -10 5 -28 10 -39 10 -16 0 -21 6
-21 24 0 13 -3 31 -6 39 -4 11 2 16 23 19 25 3 30 9 41 53 17 69 19 254 4 283
-8 13 -22 22 -37 22 -47 0 -55 9 -55 65 0 60 -15 83 -61 92 -16 3 -29 12 -29
19 0 21 383 20 433 -1 52 -21 82 -19 100 8 8 13 33 29 56 36 38 11 41 15 41
46 0 19 9 49 20 67 37 62 21 114 -47 149 -25 13 -52 33 -60 46 -23 35 -66 42
-279 42 -110 1 -236 6 -280 12 -43 6 -218 14 -389 18 l-310 7 -54 28 -54 28
-28 -21 c-34 -26 -93 -27 -229 -6 -129 20 -185 19 -255 -6 -68 -24 -105 -21
-242 17 -49 13 -146 30 -218 36 -103 9 -136 16 -158 32 -26 19 -45 21 -215 24
-110 3 -190 8 -193 14 -15 24 -146 38 -424 48 -159 5 -326 12 -370 15 -323 21
-394 26 -422 30 -17 3 -82 5 -142 6 -110 2 -111 2 -111 26 0 122 -178 217
-347 185 l-53 -9 -1 31 c-2 102 3 401 7 456 18 222 22 334 25 775 5 830 4
1023 -4 1225 -5 107 -12 294 -17 415 -15 367 -62 717 -156 1170 -71 339 -206
757 -380 1179 -20 49 -42 121 -48 160 -13 76 -30 95 -41 46z m169 -557 c48
-131 96 -258 105 -283 17 -42 57 -170 95 -300 41 -142 120 -549 155 -795 41
-290 56 -470 66 -780 3 -93 8 -230 11 -302 4 -73 4 -133 0 -133 -4 0 -35 18
-69 39 -237 150 -911 331 -1234 331 -42 0 -75 5 -79 11 -11 18 -7 662 5 769 5
52 15 145 21 205 26 266 69 465 136 630 141 345 358 632 595 784 51 34 96 61
99 61 3 0 46 -107 94 -237z m-703 -2278 c85 -9 183 -23 219 -31 468 -115 687
-192 868 -307 l64 -40 -6 -361 c-3 -199 -8 -557 -11 -796 -2 -239 -7 -448 -9
-465 -9 -57 -18 -261 -20 -442 l-1 -183 -27 0 c-18 0 -28 5 -28 14 0 8 -52 59
-116 113 -64 54 -164 139 -223 188 -58 50 -133 112 -166 140 -176 146 -311
323 -439 574 -65 127 -93 207 -185 516 -60 203 -61 213 -106 615 -19 173 -37
324 -39 335 -2 11 -7 46 -10 77 -7 56 -7 57 21 61 51 7 59 7 214 -8z m-1195
-1835 c188 -92 286 -300 229 -486 -8 -27 -15 -52 -15 -56 0 -4 38 -4 84 -1
100 7 153 -7 261 -69 75 -44 204 -144 212 -165 3 -7 -2 -28 -10 -46 -40 -84
-62 -273 -47 -391 l12 -88 -38 -40 c-22 -21 -68 -53 -103 -71 -55 -27 -77 -32
-159 -35 -54 -3 -118 1 -148 7 -30 7 -57 10 -62 7 -4 -2 -4 -41 1 -85 34 -289
-210 -509 -488 -440 -145 35 -270 149 -327 295 -19 48 -22 77 -21 159 0 55 2
109 4 120 4 19 -1 20 -86 17 -109 -4 -184 16 -270 73 -89 59 -166 168 -201
284 -30 99 -13 264 36 362 27 51 104 133 153 162 97 57 227 72 330 39 31 -11
59 -16 64 -13 4 3 8 51 8 106 1 90 4 106 31 165 34 73 105 150 167 182 84 42
109 48 213 45 91 -2 106 -5 170 -37z m1675 -777 c33 -88 39 -260 14 -447 -16
-125 -21 -151 -37 -204 -9 -31 -12 -33 -51 -30 l-42 3 -23 80 c-12 43 -26 82
-30 86 -4 4 -27 10 -52 14 -39 6 -49 3 -71 -17 -24 -23 -26 -23 -259 -21 -157
1 -255 6 -295 15 -56 13 -60 16 -67 48 -23 99 -2 320 38 411 l16 37 107 -5
c211 -8 354 -23 378 -38 12 -8 41 -15 63 -15 37 0 42 -3 51 -30 9 -24 17 -30
39 -30 34 0 75 31 96 73 23 45 74 97 96 97 11 0 23 -11 29 -27z m499 -35 c99
-20 117 -21 212 -11 120 13 178 6 238 -32 54 -34 81 -79 76 -127 -2 -20 -7
-42 -11 -48 -30 -48 -49 -292 -28 -348 5 -12 7 -41 5 -63 -4 -40 -7 -42 -68
-71 -57 -27 -73 -30 -137 -26 -56 3 -82 10 -119 32 l-47 28 20 27 c29 40 36
129 15 185 -27 71 -98 127 -179 142 -70 12 -168 -41 -204 -109 -25 -48 -23
-143 4 -189 l21 -36 -136 5 c-76 3 -138 7 -140 8 -1 1 2 24 8 51 28 123 51
350 44 440 l-6 90 57 29 c127 62 175 65 375 23z m916 -232 c39 -8 518 -33 789
-41 94 -3 198 -11 233 -16 l62 -11 1 -47 c4 -108 -4 -248 -14 -281 -8 -22 -22
-40 -41 -49 -35 -16 -129 -17 -253 -2 -127 15 -179 20 -358 31 -154 10 -329
24 -445 35 -30 3 -123 15 -207 27 -175 25 -163 14 -163 147 0 72 20 187 37
215 6 8 311 2 359 -8z m1511 -119 c16 -15 16 -27 5 -139 -15 -144 -29 -177
-87 -195 -51 -15 -135 -16 -228 -2 -96 14 -99 16 -87 61 6 19 12 93 15 164 2
71 4 131 4 133 1 2 82 2 181 -1 153 -3 182 -6 197 -21z m-2392 -25 c30 -16 72
-64 84 -95 41 -107 -38 -217 -155 -217 -86 0 -142 48 -163 140 -30 135 112
239 234 172z m2695 -27 c41 -8 108 -23 149 -35 89 -24 139 -25 188 -5 57 24
129 27 248 9 120 -17 242 -16 254 4 6 10 18 8 52 -7 61 -27 106 -31 414 -35
149 -3 297 -10 330 -16 33 -6 164 -13 291 -14 l231 -3 35 -34 c19 -20 49 -41
66 -48 42 -17 48 -44 23 -87 -12 -19 -21 -48 -21 -64 0 -24 -6 -30 -35 -40
-19 -6 -42 -21 -50 -33 -14 -21 -15 -21 -52 -3 -33 16 -71 19 -298 22 -143 1
-269 5 -280 7 -66 15 -372 29 -533 24 l-184 -5 -32 28 c-31 28 -32 28 -188 29
-170 2 -244 11 -304 36 -31 13 -83 17 -264 21 -312 5 -321 6 -315 24 9 23 24
149 25 203 l0 47 88 -6 c48 -3 121 -12 162 -19z m-3410 -171 c9 -32 19 -64 23
-70 5 -8 -12 -14 -51 -18 -193 -22 -566 -118 -832 -212 -173 -62 -401 -153
-464 -186 -21 -11 -20 -10 25 57 45 66 64 139 64 242 l0 93 35 -7 c19 -4 74
-7 121 -6 118 2 211 38 290 111 l58 53 110 -16 c80 -12 164 -16 317 -13 198 3
207 4 221 24 11 17 20 20 40 15 22 -6 29 -17 43 -67z m453 -118 c54 -8 101
-17 104 -20 26 -26 -582 -631 -811 -807 -19 -16 -29 -15 -131 2 -226 39 -487
60 -760 60 -143 0 -314 -5 -380 -10 -239 -22 -536 -81 -672 -135 -35 -13 -63
-23 -63 -21 0 12 331 213 505 306 158 84 437 218 550 264 50 20 99 40 110 45
68 32 348 131 480 171 259 79 500 127 765 152 86 9 213 6 303 -7z m4462 -132
c11 -1 44 -3 73 -3 46 -1 52 -4 52 -22 0 -33 19 -59 43 -59 35 0 47 -19 47
-76 0 -59 21 -84 72 -84 l28 0 0 -97 c0 -148 -6 -171 -47 -188 l-34 -14 7 -63
c7 -67 15 -78 54 -78 25 0 25 -1 26 -88 2 -77 -1 -90 -17 -100 -27 -17 -47 -2
-93 69 -21 33 -41 59 -45 59 -326 8 -403 11 -434 15 -31 4 -42 1 -62 -20 -14
-13 -28 -38 -31 -54 -6 -30 -29 -48 -39 -31 -9 14 23 237 40 278 9 20 27 54
42 74 21 31 24 44 19 80 -9 60 -27 91 -56 98 -21 5 -26 14 -33 60 -4 29 -4 57
1 62 4 4 25 14 47 21 31 11 42 21 51 48 10 29 17 35 45 37 44 5 55 15 64 58
l6 36 77 -7 c42 -5 86 -9 97 -11z m-5948 -689 c138 -26 330 -98 453 -171 33
-19 60 -38 60 -43 0 -4 -66 -57 -147 -117 -783 -584 -1611 -1043 -2088 -1160
-55 -13 -126 -24 -158 -24 -58 0 -59 1 -116 58 -99 100 -163 248 -165 383 l-1
77 68 98 c130 190 337 402 544 557 106 80 320 188 458 231 170 54 412 99 640
119 119 11 379 6 452 -8z m460 -20 c109 -14 211 -29 227 -33 l29 -8 -69 -54
c-95 -77 -89 -75 -136 -42 -52 36 -213 114 -288 141 l-55 20 47 0 c26 1 136
-10 245 -24z"/>
<path d="M1664 6916 c-35 -16 -72 -58 -80 -93 -10 -39 5 -89 42 -143 l35 -51
-7 -149 -7 -150 -129 0 c-120 0 -131 2 -166 25 -83 55 -174 68 -269 40 -52
-16 -104 -62 -118 -105 -32 -102 99 -213 250 -213 65 0 140 21 155 42 3 4 64
3 137 -2 l132 -10 3 -146 c3 -130 1 -147 -15 -159 -33 -25 -57 -88 -57 -149 1
-130 97 -236 215 -236 59 0 102 20 138 63 51 60 50 182 -1 256 -29 40 -32 52
-32 117 0 40 3 102 6 138 l7 67 121 -5 121 -6 36 -38 c133 -144 359 -78 359
106 0 115 -105 215 -227 215 -32 0 -126 -40 -137 -58 -4 -6 -265 14 -273 21
-1 2 -6 235 -4 258 1 9 11 19 24 23 12 3 35 18 51 35 77 80 17 236 -113 294
-58 25 -156 32 -197 13z m153 -42 c81 -27 153 -111 153 -178 0 -31 -34 -71
-80 -94 l-35 -17 4 -160 c2 -88 6 -163 10 -167 4 -4 76 -14 160 -22 l154 -14
44 32 c165 116 376 -128 218 -252 -76 -60 -207 -23 -262 72 -6 10 -47 16 -148
21 -190 9 -179 19 -183 -175 l-3 -151 31 -47 c38 -58 44 -79 37 -145 -4 -44
-10 -56 -42 -84 -70 -60 -155 -41 -228 50 -56 68 -47 190 16 232 19 12 22 22
20 62 -1 27 -2 105 -2 175 -1 150 19 133 -175 147 -126 9 -129 9 -177 -16
-123 -64 -323 5 -323 112 0 114 209 152 330 60 31 -24 38 -25 176 -25 100 0
149 4 160 13 13 9 18 40 23 147 3 74 8 144 11 155 3 14 -9 43 -37 83 -30 46
-41 74 -42 102 -2 85 79 121 190 84z"/>
<path d="M8274 5341 c-79 -49 -117 -147 -113 -291 2 -50 8 -95 14 -100 6 -5
79 -10 163 -11 178 -2 181 0 182 89 1 211 -134 383 -246 313z m127 -71 c43
-46 68 -120 76 -218 l6 -73 -137 2 -136 1 -6 25 c-10 39 2 165 21 209 28 68
78 108 120 98 11 -3 36 -23 56 -44z"/>
<path d="M11490 5529 c-91 -86 -148 -126 -211 -150 -27 -11 -72 -30 -101 -44
-28 -14 -57 -25 -63 -25 -15 0 -170 -104 -235 -158 -291 -244 -510 -533 -762
-1007 -179 -336 -346 -610 -509 -835 -58 -80 -148 -206 -199 -280 -51 -74
-134 -189 -183 -255 -99 -133 -196 -319 -223 -425 -9 -36 -17 -66 -19 -68 -1
-1 -12 24 -23 55 -54 149 -295 438 -553 664 -202 176 -252 210 -566 370 -184
94 -383 203 -485 265 -362 220 -402 248 -518 364 -78 77 -137 148 -182 216
-62 94 -148 258 -148 282 0 16 -30 23 -36 9 -3 -8 0 -34 5 -58 6 -24 11 -120
11 -214 0 -93 5 -188 11 -210 6 -22 13 -57 16 -78 4 -30 2 -36 -10 -31 -8 3
-18 1 -21 -5 -9 -13 8 -45 50 -98 19 -23 34 -44 34 -47 0 -13 143 -253 188
-316 62 -87 256 -285 367 -375 143 -115 309 -222 685 -438 343 -197 391 -219
605 -277 66 -17 190 -54 275 -81 85 -27 171 -54 190 -60 19 -6 45 -18 58 -26
l23 -14 -23 -30 c-13 -17 -37 -51 -54 -77 l-31 -46 -61 0 c-41 -1 -63 3 -67
12 -2 6 -26 26 -52 42 -38 24 -58 30 -105 30 -33 0 -72 -7 -92 -17 l-35 -16
-123 89 c-68 50 -190 139 -273 199 -335 244 -409 295 -425 295 -9 0 -20 -11
-26 -25 l-9 -25 -135 91 c-74 50 -184 130 -245 178 -260 206 -440 348 -479
378 -22 17 -90 70 -151 117 -60 48 -123 97 -139 109 -17 12 -44 34 -61 49 -17
15 -99 79 -181 143 -128 100 -153 116 -181 113 -18 -1 -38 3 -45 10 -27 27
-53 13 -99 -50 -59 -84 -62 -92 -37 -115 12 -10 28 -30 37 -45 9 -14 74 -64
144 -110 l127 -84 -37 -19 c-21 -11 -49 -18 -63 -17 -20 2 -32 -8 -63 -55 -21
-32 -45 -68 -53 -80 -15 -21 -14 -24 11 -48 31 -32 22 -50 -30 -59 -38 -7 -72
-46 -81 -94 -5 -25 -1 -33 26 -52 l32 -23 39 23 40 22 45 -34 c194 -144 188
-138 184 -204 -1 -26 4 -33 31 -44 31 -13 33 -13 63 22 17 20 44 61 59 92 31
60 30 85 -5 123 l-20 22 22 35 c24 40 32 43 50 21 12 -14 16 -13 37 6 27 26
30 61 7 83 -10 10 -12 21 -6 31 7 13 62 -22 298 -185 159 -111 337 -234 396
-273 83 -55 108 -77 108 -94 0 -18 25 -40 111 -97 61 -40 109 -76 107 -79 -2
-2 11 -16 27 -30 25 -22 314 -233 395 -289 14 -10 48 -35 77 -55 28 -21 112
-82 186 -135 121 -88 134 -100 130 -123 -6 -29 6 -49 89 -151 70 -88 189 -198
240 -225 20 -10 70 -24 110 -30 101 -16 119 -25 116 -63 -3 -50 17 -76 58 -76
19 0 44 5 55 11 13 6 25 7 32 1 7 -5 22 -12 34 -15 13 -3 99 -49 192 -104 159
-93 169 -100 184 -141 36 -96 170 -250 245 -281 l31 -13 -25 -33 c-61 -81 -55
-208 19 -349 34 -66 51 -86 104 -125 167 -123 362 -114 446 21 9 15 17 34 17
42 0 30 22 27 60 -8 156 -141 351 -122 438 41 41 77 43 143 7 250 -39 116
-126 224 -209 258 l-38 16 20 22 c31 33 44 75 43 143 0 74 -25 145 -76 216
-61 84 -103 124 -167 158 -49 27 -75 33 -142 37 -74 5 -87 3 -133 -20 -54 -28
-82 -57 -103 -107 l-13 -31 -36 35 c-61 59 -135 90 -213 91 -41 0 -72 -5 -80
-12 -6 -7 -15 -13 -18 -13 -12 0 -170 118 -250 186 -65 56 -83 78 -96 116 -20
62 -66 101 -110 96 -29 -3 -33 -1 -38 24 -3 15 -28 51 -55 79 -28 29 -55 67
-62 86 -6 18 -15 35 -20 38 -20 13 -6 37 57 105 l66 70 57 0 c159 0 475 100
645 203 39 24 92 56 117 70 61 35 393 292 475 369 60 56 213 232 378 436 84
103 299 401 417 577 177 263 284 492 369 785 13 41 44 118 70 170 26 52 45
101 43 108 -7 19 -31 14 -43 -9 -19 -35 -20 -16 -5 72 19 108 30 298 21 372
-5 40 -17 72 -40 106 l-33 48 33 54 c35 56 46 99 29 105 -5 2 -44 -28 -85 -67z
m24 -158 c60 -116 37 -407 -64 -807 -38 -152 -91 -287 -180 -464 -96 -188 -90
-182 -170 -170 -93 14 -380 -4 -655 -41 -109 -15 -321 -64 -406 -95 -39 -14
-73 -24 -75 -21 -3 2 23 51 57 108 34 57 79 140 101 184 205 406 425 719 670
950 183 173 298 245 513 323 50 18 108 41 130 51 47 21 61 18 79 -18z m-4891
-1179 c92 -142 267 -316 397 -396 52 -31 158 -97 235 -145 77 -49 162 -100
188 -114 41 -21 53 -35 81 -94 18 -37 60 -113 93 -168 33 -55 86 -147 117
-205 77 -139 208 -357 269 -449 l50 -74 -54 31 c-30 16 -70 39 -89 50 -19 11
-75 43 -123 71 -49 28 -90 51 -92 51 -3 0 -80 48 -172 106 -92 59 -177 111
-188 118 -149 86 -473 392 -567 536 -80 122 -175 314 -197 396 -19 73 -41 209
-41 254 0 67 12 152 20 143 4 -4 37 -54 73 -111z m4512 -312 c5 -8 -81 -145
-115 -183 -3 -4 -59 18 -124 49 -70 34 -161 68 -224 84 -98 26 -104 28 -72 35
109 20 524 32 535 15z m-580 -65 c61 -14 139 -34 175 -46 79 -25 250 -107 250
-119 0 -5 -12 -27 -27 -48 -184 -261 -232 -323 -435 -563 -156 -186 -239 -270
-346 -351 -31 -23 -93 -72 -137 -107 -114 -92 -262 -186 -434 -275 -48 -25
-281 -101 -351 -115 -30 -6 -91 -12 -135 -13 l-80 -3 -3 52 c-2 28 4 80 13
115 22 87 102 247 172 345 158 221 224 315 275 388 30 44 83 118 117 165 111
153 187 263 250 366 l63 102 121 41 c134 45 312 89 367 90 19 1 85 -10 145
-24z m-4599 -66 c4 -7 21 -9 41 -6 38 6 15 22 388 -273 189 -150 268 -212 315
-248 20 -15 107 -83 194 -152 87 -69 204 -161 260 -205 56 -44 114 -90 130
-102 l28 -22 -21 -33 c-44 -69 -3 -86 -306 124 -406 281 -517 360 -538 383
-27 32 -183 145 -386 280 -83 55 -145 104 -148 115 -3 11 -8 20 -12 20 -3 0
-14 7 -25 15 -18 13 -17 16 19 64 38 52 49 59 61 40z m2112 -545 c154 -92 360
-262 525 -437 132 -140 268 -318 308 -401 47 -101 56 -130 38 -123 -8 3 -39
13 -69 22 -30 9 -107 34 -170 55 -63 21 -177 55 -252 74 -167 43 -278 89 -319
130 -37 37 -131 175 -186 271 -23 39 -81 140 -131 226 -196 340 -239 415 -245
431 -6 17 354 -162 501 -248z m-1768 72 c58 -41 104 -78 103 -82 -1 -5 -8 -23
-15 -41 -10 -28 -10 -35 7 -53 20 -22 14 -40 -8 -22 -14 12 -43 10 -56 -4 -4
-5 -21 -33 -36 -62 l-28 -52 26 -28 c35 -36 34 -55 -6 -121 -35 -59 -62 -79
-52 -39 3 13 2 36 -4 50 -11 29 -240 208 -266 208 -9 0 -30 -7 -46 -16 -17 -8
-37 -13 -45 -10 -13 5 -13 10 1 36 14 27 26 34 78 42 10 2 28 20 40 42 l22 39
-27 20 -26 20 35 53 c29 44 41 54 64 54 15 0 31 5 34 11 9 14 45 28 75 28 15
0 67 -29 130 -73z m1236 -726 c-12 -14 -33 -39 -45 -57 l-21 -31 -93 60 c-50
34 -95 64 -100 68 -4 3 11 34 32 68 l40 61 105 -72 105 -72 -23 -25z m381
-145 c144 -104 271 -197 283 -205 62 -42 220 -162 220 -166 0 -8 -121 -184
-127 -184 -7 0 -133 89 -374 264 -31 23 -138 100 -237 171 -100 72 -182 135
-182 140 0 6 25 42 56 80 30 39 60 78 65 88 6 10 15 14 22 10 7 -4 130 -93
274 -198z m730 -360 c23 -14 43 -28 43 -32 0 -3 -16 -23 -34 -44 -110 -121
-35 -298 122 -286 63 4 116 42 148 105 l22 42 31 -35 c17 -20 32 -41 32 -48 2
-17 7 -98 8 -125 2 -41 -31 -94 -103 -169 -37 -40 -72 -73 -77 -73 -4 0 -10 8
-13 18 -5 14 -18 17 -73 18 -90 0 -159 32 -248 115 -65 61 -163 174 -195 224
-13 22 -13 27 7 54 12 16 49 69 83 118 94 137 100 143 156 143 33 0 61 -8 91
-25z m225 -94 c53 -59 31 -169 -41 -209 -48 -27 -86 -28 -129 -2 -116 71 -41
260 98 246 34 -3 51 -11 72 -35z m265 -283 c54 -50 14 -146 -118 -283 -85 -88
-134 -119 -150 -94 -17 26 -9 40 71 124 85 91 114 138 125 200 14 84 28 94 72
53z m130 -179 c46 -43 179 -146 236 -181 30 -20 72 -24 82 -8 3 6 33 10 66 10
78 0 128 -25 200 -101 65 -68 89 -71 89 -9 0 50 35 100 90 128 98 51 251 6
344 -100 128 -145 153 -319 57 -387 -35 -25 -32 -58 8 -68 108 -26 211 -143
247 -283 20 -79 13 -140 -22 -194 -38 -57 -73 -83 -127 -97 -85 -20 -174 17
-285 120 -50 45 -72 44 -72 -3 0 -54 -39 -117 -90 -144 -38 -20 -57 -23 -120
-20 -167 7 -287 114 -335 298 -24 93 -4 180 49 215 46 30 38 75 -13 75 -73 0
-196 130 -260 274 -20 44 -37 66 -52 71 -13 4 -86 45 -162 91 -76 46 -153 89
-172 95 -19 7 -35 16 -35 19 0 3 23 28 51 55 51 51 130 155 142 188 8 23 20
16 84 -44z"/>
<path d="M6127 3209 c-39 -21 -81 -76 -91 -121 -5 -24 0 -31 58 -72 35 -26 70
-46 78 -46 21 0 64 49 82 92 25 59 21 105 -13 139 -34 34 -61 36 -114 8z m85
-36 c30 -27 19 -94 -24 -140 l-20 -22 -42 32 c-22 17 -43 33 -45 35 -12 7 33
75 61 92 40 24 46 25 70 3z"/>
<path d="M10127 1189 c-24 -14 -47 -69 -47 -111 0 -38 -35 -167 -49 -181 -21
-21 -63 8 -185 122 -161 153 -197 164 -253 81 -14 -20 -23 -48 -23 -71 0 -32
7 -43 44 -76 24 -21 92 -67 150 -101 59 -35 123 -77 142 -94 l34 -30 -27 -46
c-14 -26 -43 -67 -62 -91 -60 -74 -71 -94 -71 -133 0 -28 8 -47 32 -73 35 -41
95 -75 131 -75 33 0 65 34 72 77 14 89 36 166 55 193 l21 30 42 -27 c73 -45
161 -110 182 -133 40 -45 97 -80 132 -80 97 0 134 77 78 161 -21 32 -46 49
-151 99 -130 62 -188 99 -205 132 -15 29 19 93 94 178 36 40 68 85 70 99 7 34
-15 68 -72 113 -51 39 -105 55 -134 37z m100 -65 c47 -36 63 -54 63 -72 0 -10
-29 -50 -65 -91 -70 -80 -105 -141 -105 -186 0 -37 69 -103 148 -140 162 -78
199 -99 219 -123 40 -49 21 -102 -36 -102 -21 0 -48 18 -102 66 -79 71 -230
174 -255 174 -43 0 -114 -137 -114 -221 0 -37 -20 -79 -37 -79 -44 0 -123 73
-123 113 0 13 19 45 41 72 23 28 62 81 87 118 l45 68 -30 37 c-31 39 -119 102
-215 153 -31 17 -75 47 -97 66 -36 30 -40 38 -34 66 8 44 35 71 63 62 12 -4
73 -56 137 -116 108 -103 172 -149 207 -149 38 0 79 96 96 223 13 103 34 115
107 61z"/>
</g>
</svg>
