<?xml version="1.0" standalone="no"?>
<!DOCTYPE svg PUBLIC "-//W3C//DTD SVG 20010904//EN"
 "http://www.w3.org/TR/2001/REC-SVG-20010904/DTD/svg10.dtd">
<svg version="1.0" xmlns="http://www.w3.org/2000/svg"
 width="221.000000pt" height="211.000000pt" viewBox="0 0 221.000000 211.000000"
 preserveAspectRatio="xMidYMid meet">

<g transform="translate(0.000000,211.000000) scale(0.100000,-0.100000)"
fill="#000000" stroke="none">
<path d="M990 1761 c-30 -9 -108 -43 -173 -74 -129 -63 -163 -96 -187 -181
-13 -49 -28 -67 -106 -132 -90 -75 -147 -187 -160 -316 -5 -53 -3 -67 13 -87
16 -19 25 -22 51 -16 36 7 122 68 207 145 31 28 60 48 66 45 17 -11 41 -69 70
-168 16 -55 36 -110 44 -124 9 -14 54 -43 103 -66 71 -34 82 -42 63 -47 -54
-12 -39 -89 33 -164 20 -22 35 -40 34 -41 -2 -1 -20 -5 -40 -9 -33 -6 -39 -4
-55 21 -33 53 -116 143 -131 143 -8 0 -33 15 -56 33 -72 59 -75 60 -136 21
-30 -19 -58 -42 -64 -52 -5 -9 -22 -29 -38 -45 -28 -26 -29 -31 -27 -100 2
-39 -3 -92 -10 -117 -14 -45 -9 -66 27 -130 5 -8 15 -28 23 -45 14 -28 19 -30
78 -32 45 -2 70 -8 88 -23 32 -25 40 -25 83 6 75 52 124 84 132 84 4 0 8 -13
8 -28 0 -16 6 -37 14 -48 14 -18 16 -18 48 -2 18 9 49 19 69 22 48 8 111 75
133 143 9 28 25 57 34 66 9 8 53 22 97 32 172 38 312 91 374 142 23 19 24 22
12 52 -8 17 -15 31 -16 31 -1 0 -23 -11 -48 -25 -64 -36 -201 -85 -252 -89
l-43 -4 -7 66 c-4 37 -10 76 -14 87 -7 16 3 32 45 78 56 60 112 148 132 206 7
19 15 66 18 105 3 39 15 101 25 137 24 84 24 121 -2 200 -26 79 -67 145 -124
198 -111 102 -298 146 -435 102z m205 -26 c147 -38 243 -111 296 -224 42 -88
48 -161 20 -265 -12 -44 -21 -96 -21 -116 0 -64 -25 -135 -74 -208 -56 -85
-115 -139 -196 -180 -68 -34 -80 -33 -156 10 -28 16 -89 47 -135 71 l-84 42
-33 105 c-76 240 -94 253 -209 149 -82 -73 -162 -129 -185 -129 -28 0 -30 34
-9 120 26 103 61 168 122 225 50 47 69 55 69 31 0 -25 65 -39 147 -31 72 7 75
8 104 47 32 45 36 74 16 102 -21 29 -110 18 -174 -21 l-50 -31 24 67 c14 36
31 74 40 83 30 34 274 148 343 161 49 9 87 7 145 -8z m-355 -288 c0 -13 -13
-35 -28 -50 -25 -24 -35 -27 -103 -27 l-74 1 39 34 c21 19 60 41 85 49 68 21
81 20 81 -7z m-115 -727 c10 -11 16 -22 13 -25 -9 -9 -79 25 -73 35 10 16 41
11 60 -10z m588 -41 c4 -24 5 -58 2 -76 -5 -27 -12 -34 -43 -43 -54 -15 -54
-15 -22 40 17 28 30 57 30 65 0 29 -19 14 -50 -40 -41 -72 -60 -73 -49 -3 5
28 13 56 18 61 14 14 84 46 96 43 5 -1 13 -22 18 -47z m-226 11 c21 -11 46
-20 56 -20 14 0 17 -5 11 -22 -9 -32 -7 -32 -60 -4 -53 28 -64 31 -64 16 0 -6
22 -24 50 -41 66 -41 83 -89 25 -75 -46 12 -145 132 -129 158 10 15 74 8 111
-12z m-377 -25 c41 -21 50 -31 55 -59 4 -19 3 -42 -2 -51 -8 -13 -16 -7 -49
35 -43 55 -66 66 -107 51 -21 -8 -27 -8 -27 3 0 53 51 61 130 21z m114 -16
c17 -14 26 -30 26 -50 0 -16 -3 -29 -7 -29 -7 0 -49 64 -61 93 -7 14 15 7 42
-14z m864 -1 c-7 -19 -165 -95 -233 -111 -33 -9 -108 -27 -167 -41 -59 -15
-151 -31 -205 -36 -54 -5 -108 -13 -120 -16 -18 -5 -21 -3 -16 15 8 32 27 38
153 46 63 4 141 15 175 25 33 10 84 21 114 24 57 7 180 49 246 84 47 25 58 27
53 10z m-1016 -55 c32 -31 33 -36 12 -67 l-15 -24 -27 25 c-23 21 -33 24 -69
19 l-43 -6 0 36 c0 30 2 33 18 26 11 -6 28 -5 47 4 42 18 45 18 77 -13z m243
-37 c9 -14 15 -37 13 -53 -2 -22 -8 -28 -28 -28 -22 0 -25 5 -28 39 -6 67 14
86 43 42z m-90 -26 c7 -14 18 -42 25 -63 11 -36 10 -40 -18 -72 -17 -18 -33
-43 -36 -53 -5 -16 -36 -40 -36 -29 0 1 7 37 15 80 8 43 15 99 15 124 0 49 13
54 35 13z m-196 -36 c25 -31 27 -57 6 -74 -30 -24 -97 45 -82 84 10 25 53 19
76 -10z m104 19 c3 -5 8 -30 11 -56 7 -46 6 -49 -32 -87 -22 -22 -49 -40 -61
-40 -11 0 -21 2 -21 5 0 13 86 184 92 185 4 0 9 -3 11 -7z m-165 -103 c17 -16
32 -34 32 -40 0 -14 -23 -13 -38 2 -8 8 -15 8 -26 -2 -13 -10 -17 -9 -22 4 -7
18 3 66 14 66 4 0 22 -14 40 -30z m382 -37 c0 -12 -89 -93 -102 -93 -4 0 -1
15 6 33 8 17 17 48 21 67 12 58 25 67 52 34 13 -16 23 -34 23 -41z m122 15
c-39 -38 -54 -68 -34 -68 4 0 30 23 57 50 71 72 98 63 56 -18 -27 -52 -63 -83
-108 -92 -21 -5 -49 -12 -62 -16 -24 -7 -24 -7 -16 47 4 30 8 71 9 91 0 42 5
44 90 47 l50 1 -42 -42z m-401 -83 c16 4 31 11 34 16 10 14 25 10 25 -6 0 -9
-12 -27 -26 -40 -22 -20 -36 -25 -78 -23 -57 2 -66 9 -66 56 l0 32 41 -20 c28
-15 50 -19 70 -15z m131 -32 c-6 -10 -22 -29 -36 -42 -24 -23 -28 -24 -43 -9
-14 15 -12 19 33 47 52 32 61 33 46 4z"/>
<path d="M1087 1380 c-19 -12 -47 -72 -47 -102 0 -29 136 -158 167 -158 91 0
99 177 11 243 -30 23 -106 32 -131 17z m130 -66 c25 -32 33 -66 26 -111 -10
-61 -26 -60 -98 4 -67 60 -79 89 -52 124 27 35 88 27 124 -17z"/>
</g>
</svg>
